<?xml version="1.0" encoding="iso-8859-1"?>
<!-- Generator: Adobe Illustrator 19.0.0, SVG Export Plug-In . SVG Version: 6.00 Build 0)  -->
<svg version="1.1" id="Capa_1" xmlns="http://www.w3.org/2000/svg" xmlns:xlink="http://www.w3.org/1999/xlink" x="0px" y="0px"
	 viewBox="0 0 512 512" style="enable-background:new 0 0 512 512;" xml:space="preserve">
<path style="fill:#FF748D;" d="M393.919,341.461c-26.633,0-48.223,21.756-48.223,48.594L66,386.514V26.938
	C66,16.203,74.636,7.5,85.289,7.5h351.066c5.327,0,9.645,4.351,9.645,9.719v324.242H393.919z"/>
<path style="fill:#FF507D;" d="M95.898,27.541v359.596H66V27.541c0-10.735,8.636-19.438,19.289-19.438h29.898
	C104.535,8.104,95.898,16.806,95.898,27.541z"/>
<path style="fill:#F8C087;" d="M446,433.256c0,1.367-1.1,2.475-2.457,2.475h-329.32c-26.907,0-48.667-22.207-48.216-49.425
	c0.441-26.644,22.565-47.763,49.01-47.763h328.526c1.357,0,2.457,1.108,2.457,2.475l0,0c0,0.968-0.567,1.831-1.434,2.248
	c-16.259,7.81-27.5,24.511-27.5,43.871s11.241,36.061,27.5,43.871C445.433,431.425,446,432.288,446,433.256L446,433.256z"/>
<path style="fill:#EF9F67;" d="M162.447,435.732h-48.223c-26.907,0-48.667-22.207-48.216-49.425
	c0.441-26.644,22.565-47.763,49.01-47.763h48.223c-26.445,0-48.569,21.119-49.01,47.763
	C113.779,413.525,135.539,435.732,162.447,435.732z"/>
<path style="fill:#FF4040;" d="M247.789,504.255L247.789,504.255c-18.518-7.746-39.335-7.746-57.853,0l0,0
	c-2.067,0.865-4.342-0.666-4.342-2.921V379.726h66.537v121.608C252.131,503.589,249.856,505.12,247.789,504.255z"/>
<path style="fill:#ED3C3C;" d="M211.152,498.851c-7.231,0.748-14.381,2.545-21.217,5.404l0,0c-2.067,0.865-4.342-0.666-4.342-2.921
	V379.726h25.558L211.152,498.851L211.152,498.851z"/>
<path style="fill:#FFA7A9;" d="M371.977,183.169L371.977,183.169c-18.287,26.511-41.614,49.1-68.628,66.461l-15.099,9.703
	c-3.03,1.947-6.906,1.947-9.936,0l-15.099-9.703c-27.014-17.36-50.341-39.95-68.628-66.46l0,0
	c-14.158-21.4-11.358-49.895,6.69-68.081l0,0c20.023-20.177,52.487-20.177,72.51,0l2.961,2.984c3.608,3.636,9.459,3.636,13.067,0
	l2.961-2.984c20.023-20.177,52.487-20.177,72.51,0l0,0C383.335,133.274,386.135,161.769,371.977,183.169z"/>
<path d="M453.5,17.23c0-9.5-7.691-17.23-17.145-17.23H180.14c-4.143,0-7.5,3.357-7.5,7.5s3.357,7.5,7.5,7.5h256.216
	c1.183,0,2.145,1.001,2.145,2.23v313.612H141.013V15h11.479c4.143,0,7.5-3.357,7.5-7.5s-3.357-7.5-7.5-7.5H85.289
	C70.518,0,58.5,12.095,58.5,26.961v360.035c0,0.122,0.012,0.24,0.018,0.36c0.089,14.777,5.776,28.643,16.127,39.168
	c10.544,10.72,24.601,16.624,39.578,16.624h63.87v58.183c0,3.583,1.778,6.906,4.756,8.888c2.964,1.973,6.695,2.331,9.983,0.955
	c16.785-7.031,35.272-7.029,52.06,0c1.321,0.554,2.715,0.826,4.103,0.826c2.061,0,4.107-0.602,5.88-1.781
	c2.978-1.981,4.756-5.305,4.756-8.888v-58.183h183.912c5.49,0,9.957-4.476,9.957-9.978c0-3.813-2.23-7.35-5.683-9.01
	c-14.125-6.793-23.251-21.381-23.251-37.165s9.126-30.373,23.25-37.166c3.453-1.66,5.684-5.196,5.684-9.009
	c0-0.45-0.04-0.889-0.098-1.323c0.058-0.377,0.098-0.761,0.098-1.155V17.23z M85.289,15h40.724v315.842h-10.996
	c-16.33,0-31.151,7.028-41.517,18.195V26.961C73.5,20.365,78.788,15,85.289,15z M114.224,428.148
	c-10.925,0-21.183-4.313-28.884-12.143c-7.817-7.947-12.02-18.501-11.834-29.718c0.369-22.302,18.99-40.445,41.511-40.445h9.934
	c-10.96,10.075-17.957,24.363-18.219,40.197c-0.253,15.27,5.479,29.647,16.138,40.484c0.548,0.557,1.111,1.093,1.677,1.624h-10.323
	V428.148z M244.631,495.082c-16.666-5.463-34.871-5.463-51.537,0v-99.848h51.537V495.082z M427.433,428.148H259.631v-33.652h150.461
	C411.847,407.425,418.053,419.344,427.433,428.148z M410.092,379.496h-257.29c-4.143,0-7.5,3.357-7.5,7.5s3.357,7.5,7.5,7.5h25.292
	v33.652h-15.647c-10.924,0-21.182-4.313-28.883-12.143c-7.817-7.947-12.02-18.501-11.834-29.718
	c0.369-22.302,18.99-40.445,41.511-40.445h264.192C418.053,354.646,411.847,366.566,410.092,379.496z M259.157,255.627l15.099,9.714
	c2.742,1.766,5.885,2.647,9.027,2.647s6.284-0.883,9.024-2.646l15.101-9.715c27.993-18.012,51.795-41.09,70.745-68.594
	c0.027-0.04,0.055-0.08,0.082-0.12c16.055-24.299,12.85-56.926-7.621-77.578c-11.104-11.203-25.871-17.372-41.583-17.372
	c-15.711,0-30.479,6.169-41.582,17.372l-2.961,2.987c-0.418,0.421-0.887,0.51-1.206,0.51s-0.788-0.089-1.206-0.51l-2.961-2.987
	c-11.104-11.203-25.871-17.372-41.582-17.372c-15.712,0-30.479,6.169-41.583,17.371c-20.472,20.654-23.676,53.28-7.619,77.579
	c0.026,0.04,0.054,0.08,0.081,0.12C207.361,214.537,231.163,237.616,259.157,255.627z M206.604,119.894
	c8.265-8.339,19.249-12.931,30.929-12.931c11.679,0,22.663,4.592,30.928,12.931l2.961,2.987c3.165,3.193,7.377,4.951,11.86,4.951
	s8.695-1.758,11.86-4.951l2.961-2.987c8.265-8.339,19.249-12.931,30.928-12.931c11.68,0,22.664,4.592,30.929,12.931
	c0,0,0,0,0.001,0.001c15.482,15.62,17.917,40.291,5.798,58.691c-17.811,25.833-40.173,47.509-66.467,64.427l-15.102,9.716
	c-0.562,0.362-1.258,0.361-1.817-0.001l-15.1-9.715c-26.295-16.918-48.657-38.595-66.468-64.428
	C188.689,160.186,191.122,135.514,206.604,119.894z M318.475,191.174c0,4.143-3.357,7.5-7.5,7.5h-57.868c-4.143,0-7.5-3.357-7.5-7.5
	s3.357-7.5,7.5-7.5h57.868C315.117,183.674,318.475,187.032,318.475,191.174z M226.317,161.982c0-4.143,3.357-7.5,7.5-7.5h96.446
	c4.143,0,7.5,3.357,7.5,7.5s-3.357,7.5-7.5,7.5h-96.446C229.675,169.482,226.317,166.124,226.317,161.982z"/>
<g>
</g>
<g>
</g>
<g>
</g>
<g>
</g>
<g>
</g>
<g>
</g>
<g>
</g>
<g>
</g>
<g>
</g>
<g>
</g>
<g>
</g>
<g>
</g>
<g>
</g>
<g>
</g>
<g>
</g>
</svg>
