<?xml version="1.0" encoding="iso-8859-1"?>
<!-- Generator: Adobe Illustrator 19.0.0, SVG Export Plug-In . SVG Version: 6.00 Build 0)  -->
<svg version="1.1" id="Capa_1" xmlns="http://www.w3.org/2000/svg" xmlns:xlink="http://www.w3.org/1999/xlink" x="0px" y="0px"
	 viewBox="0 0 512 512" style="enable-background:new 0 0 512 512;" xml:space="preserve">
<path style="fill:#C66F60;" d="M434.325,328.418V484.5c0,11.046-8.954,20-20,20H97.675c-11.046,0-20-8.954-20-20V328.418
	c0-11.046,8.954-20,20-20h316.65C425.371,308.418,434.325,317.372,434.325,328.418z"/>
<path style="fill:#DE886C;" d="M434.325,328.418V484.5c0,11.046-8.954,20-20,20H123.561c-11.046,0-20-8.954-20-20V328.418
	c0-11.046,8.954-20,20-20h290.765C425.371,308.418,434.325,317.372,434.325,328.418z"/>
<path style="fill:#E79A7A;" d="M453.5,250.762v76.484c0,11.046-8.954,20-20,20h-355c-11.046,0-20-8.954-20-20v-76.484
	c0-11.046,8.954-20,20-20h355C444.546,230.762,453.5,239.716,453.5,250.762z"/>
<path style="fill:#DE886C;" d="M104.36,347.246h-0.799H78.474h-0.799c-10.59,0-19.175-8.692-19.175-19.414v-77.656
	c0-10.722,8.585-19.414,19.175-19.414h0.799h25.087h0.799c-10.59,0-19.175,8.692-19.175,19.414v77.656
	C85.185,338.554,93.77,347.246,104.36,347.246z"/>
<path style="fill:#E79A7A;" d="M453.5,231.348v57.07c0,11.046-8.954,20-20,20h-355c-11.046,0-20-8.954-20-20v-57.07
	c0-11.046,8.954-20,20-20h355C444.546,211.348,453.5,220.302,453.5,231.348z"/>
<path style="fill:#F9B490;" d="M434.325,308.418H85.345v-77.656c0-10.722,8.585-19.414,19.175-19.414h329.806
	c10.59,0,19.175,8.692,19.175,19.414v58.242C453.5,299.726,444.915,308.418,434.325,308.418z"/>
<path style="fill:#FFF9CF;" d="M314.277,444.316H197.723c-2.761,0-5-2.239-5-5v-48.242c0-2.761,2.239-5,5-5h116.553
	c2.761,0,5,2.239,5,5v48.242C319.277,442.078,317.038,444.316,314.277,444.316z"/>
<path style="fill:#FF4040;" d="M133.471,233.455c-12.373-18.791-9.926-43.812,5.847-59.781l0,0c17.499-17.717,45.87-17.717,63.369,0
	l2.588,2.62c3.153,3.193,8.266,3.193,11.419,0l2.588-2.62c17.499-17.717,45.87-17.717,63.369,0l0,0
	c15.772,15.969,18.219,40.99,5.847,59.781l0,0c-8.41,12.249-18.049,23.533-28.726,33.708h-97.574
	C151.521,256.988,141.881,245.704,133.471,233.455L133.471,233.455z"/>
<path style="fill:#ED3C3C;" d="M191.952,267.163h-29.755c-10.676-10.175-20.316-21.459-28.726-33.708l0,0
	c-12.373-18.791-9.926-43.812,5.847-59.781l0,0c9.065-9.179,21.048-13.589,32.926-13.258c-0.448,0.424-0.898,0.843-1.335,1.285l0,0
	c-18.844,19.079-21.767,48.973-6.985,71.423l0,0C172.288,245.307,181.684,256.677,191.952,267.163z"/>
<path style="fill:#FF507D;" d="M435.901,109.961L435.901,109.961c-12.392,18.05-28.199,33.431-46.505,45.251l-10.232,6.606
	c-2.053,1.326-4.68,1.326-6.733,0l-10.232-6.606c-18.306-11.82-34.113-27.2-46.505-45.25l0,0
	c-9.594-14.57-7.696-33.972,4.533-46.354l0,0c13.569-13.738,35.568-13.738,49.136,0l2.007,2.032c2.445,2.476,6.409,2.476,8.855,0
	l2.007-2.032c13.569-13.738,35.568-13.738,49.136,0l0,0C443.597,75.99,445.495,95.391,435.901,109.961z"/>
<path style="fill:#F13269;" d="M375.001,162.756c-0.898-0.116-1.777-0.426-2.57-0.938l-10.232-6.606
	c-18.306-11.82-34.113-27.201-46.505-45.25l0,0c-9.594-14.571-7.696-33.972,4.533-46.354l0,0
	c10.633-10.766,26.443-13.092,39.317-6.984c-2.494,1.725-4.872,3.696-7.086,5.938l0,0c-17.325,17.541-20.013,45.025-6.422,65.666
	l0,0C354.59,140.686,364.301,152.239,375.001,162.756z"/>
<path style="fill:#FFA7A9;" d="M236.331,47.746L236.331,47.746c-8.803,12.822-20.031,23.747-33.035,32.143l-7.268,4.693
	c-1.459,0.942-3.324,0.942-4.783,0l-7.268-4.693c-13.003-8.396-24.232-19.322-33.034-32.143l0,0
	c-6.815-10.35-5.467-24.131,3.22-32.927l0,0c9.638-9.759,25.265-9.759,34.903,0l1.425,1.443c1.737,1.759,4.553,1.759,6.29,0
	l1.425-1.443c9.638-9.759,25.265-9.759,34.903,0l0,0C241.798,23.615,243.146,37.396,236.331,47.746z"/>
<path d="M309.511,114.207c13.022,18.967,29.38,34.883,48.62,47.306l10.232,6.607c2.258,1.458,4.846,2.187,7.434,2.187
	c2.588,0,5.177-0.729,7.435-2.187l10.231-6.606c19.239-12.422,35.597-28.338,48.62-47.306c0.027-0.04,0.054-0.08,0.081-0.121
	c11.496-17.46,9.199-40.906-5.462-55.749l-5.336,5.27l5.336-5.271c-7.982-8.082-18.603-12.533-29.904-12.533
	s-21.921,4.451-29.904,12.533l-1.098,1.112l-1.098-1.112c-7.983-8.082-18.603-12.533-29.905-12.533
	c-11.301,0-21.921,4.451-29.903,12.533c-14.661,14.844-16.958,38.29-5.461,55.749C309.457,114.126,309.484,114.167,309.511,114.207z
	 M325.563,68.877c5.142-5.207,11.972-8.074,19.232-8.074s14.09,2.867,19.232,8.073l2.007,2.032c2.603,2.635,6.071,4.086,9.764,4.086
	s7.16-1.452,9.762-4.086l2.007-2.032c5.143-5.207,11.972-8.074,19.232-8.074s14.089,2.867,19.232,8.074l0,0
	c9.698,9.819,11.226,25.327,3.643,36.902c-11.886,17.294-26.806,31.806-44.347,43.131l-9.53,6.153l-9.53-6.153
	c-17.542-11.326-32.462-25.838-44.347-43.132C314.338,94.205,315.866,78.697,325.563,68.877z M144.76,51.991
	c9.413,13.711,21.24,25.217,35.15,34.199l7.268,4.692c1.962,1.267,4.211,1.9,6.46,1.9c2.249,0,4.498-0.634,6.459-1.9l7.268-4.692
	c13.91-8.982,25.736-20.488,35.149-34.199c0.027-0.04,0.054-0.08,0.081-0.121c8.727-13.254,6.982-31.053-4.148-42.322
	C232.365,3.391,224.272,0,215.659,0c-8.256,0-16.035,3.116-22.022,8.798C187.65,3.116,179.873,0,171.616,0l0,0
	c-8.612,0-16.706,3.391-22.788,9.549c-11.13,11.27-12.875,29.068-4.148,42.322C144.706,51.911,144.733,51.951,144.76,51.991z
	 M159.5,20.089c3.242-3.282,7.544-5.089,12.116-5.089c4.571,0,8.874,1.808,12.115,5.089l1.426,1.444
	c2.26,2.288,5.272,3.548,8.481,3.548s6.221-1.26,8.481-3.549l1.425-1.443C206.785,16.807,211.088,15,215.66,15
	c4.571,0,8.875,1.808,12.116,5.089c6.168,6.245,7.144,16.107,2.329,23.476c-8.276,12.038-18.664,22.138-30.875,30.023l-5.591,3.61
	l-5.591-3.61c-12.212-7.885-22.6-17.986-30.875-30.023C152.356,36.197,153.332,26.335,159.5,20.089z M434.325,203.848H323.109
	c-4.142,0-7.5,3.358-7.5,7.5s3.358,7.5,7.5,7.5h111.216c6.438,0,11.675,5.345,11.675,11.914v49.506v8.736
	c0,6.569-5.237,11.914-11.675,11.914H77.675c-6.438,0-11.675-5.345-11.675-11.914v-8.736v-49.506
	c0-6.569,5.237-11.914,11.675-11.914h43.8c1.438,3.968,3.339,7.816,5.732,11.451c0.027,0.041,0.054,0.081,0.081,0.121
	c5.262,7.664,11.037,15.01,17.25,21.976c-4.026,0.132-7.251,3.429-7.251,7.487c0,4.142,3.358,7.5,7.5,7.5h222.427
	c4.142,0,7.5-3.358,7.5-7.5s-3.358-7.5-7.5-7.5h-89.773c6.209-6.962,11.981-14.304,17.239-21.963c0.027-0.04,0.054-0.08,0.081-0.121
	c14.265-21.666,11.416-50.758-6.775-69.176c-9.883-10.007-23.031-15.518-37.021-15.518c-13.989,0-27.137,5.511-37.019,15.517
	l-2.589,2.621c-0.07,0.071-0.185,0.165-0.374,0.165c-0.188,0-0.303-0.094-0.374-0.166l-2.587-2.619
	c-9.883-10.007-23.03-15.518-37.02-15.518c-0.001,0,0,0,0,0c-13.989,0-27.138,5.512-37.021,15.518
	c-11.394,11.536-16.767,27.261-15.688,42.725h-40.62C62.966,203.848,51,215.921,51,230.762v49.506v8.736v38.828
	c0,12.213,8.107,22.546,19.175,25.824v131.43c0,14.84,11.966,26.914,26.675,26.914h318.3c14.708,0,26.675-12.074,26.675-26.914
	v-131.43C452.893,350.378,461,340.045,461,327.832v-38.828v-8.736v-49.506C461,215.921,449.034,203.848,434.325,203.848z
	 M144.654,171.664c7.043-7.131,16.401-11.059,26.349-11.059s19.305,3.927,26.349,11.059l2.587,2.619
	c2.945,2.982,6.868,4.625,11.046,4.625c4.178,0,8.101-1.642,11.045-4.624l2.588-2.621c7.043-7.131,16.4-11.058,26.348-11.058
	s19.305,3.927,26.349,11.059c13.227,13.392,15.307,34.546,4.958,50.326c-7.483,10.891-16.079,21.095-25.558,30.393h-91.46
	c-9.477-9.296-18.073-19.499-25.557-30.391C129.346,206.212,131.426,185.057,144.654,171.664z M426.825,485.086
	c0,6.569-5.237,11.914-11.675,11.914H96.85c-6.438,0-11.675-5.345-11.675-11.914v-130.34h341.65L426.825,485.086L426.825,485.086z
	 M446,327.832c0,6.569-5.237,11.914-11.675,11.914H77.675c-6.438,0-11.675-5.345-11.675-11.914v-14.635
	c3.528,1.74,7.49,2.72,11.675,2.72h356.65c4.185,0,8.146-0.98,11.675-2.72V327.832z M197.723,451.816h116.554
	c6.893,0,12.5-5.607,12.5-12.5v-48.242c0-6.893-5.607-12.5-12.5-12.5H197.723c-6.893,0-12.5,5.607-12.5,12.5v48.242
	C185.223,446.209,190.831,451.816,197.723,451.816z M200.223,393.574h111.554v43.242H200.223V393.574z M292.262,415.195
	c0,4.142-3.358,7.5-7.5,7.5h-57.524c-4.142,0-7.5-3.358-7.5-7.5s3.358-7.5,7.5-7.5h57.524
	C288.904,407.695,292.262,411.053,292.262,415.195z"/>
<g>
</g>
<g>
</g>
<g>
</g>
<g>
</g>
<g>
</g>
<g>
</g>
<g>
</g>
<g>
</g>
<g>
</g>
<g>
</g>
<g>
</g>
<g>
</g>
<g>
</g>
<g>
</g>
<g>
</g>
</svg>
