<?xml version="1.0" encoding="iso-8859-1"?>
<!-- Generator: Adobe Illustrator 19.0.0, SVG Export Plug-In . SVG Version: 6.00 Build 0)  -->
<svg version="1.1" id="Capa_1" xmlns="http://www.w3.org/2000/svg" xmlns:xlink="http://www.w3.org/1999/xlink" x="0px" y="0px"
	 viewBox="0 0 511.999 511.999" style="enable-background:new 0 0 511.999 511.999;" xml:space="preserve">
<path style="fill:#F8C087;" d="M372.732,123.984v293.152v67.949c0,10.722-8.638,19.414-19.295,19.414H52.442
	c-10.656,0-19.295-8.692-19.295-19.414V123.984c0-10.722,8.638-19.414,19.295-19.414h300.996
	C364.094,104.57,372.732,113.262,372.732,123.984z"/>
<path style="fill:#FDDEA5;" d="M411.322,409.371H488.5v15.531c0,21.444-17.277,38.828-38.589,38.828h-38.589H110.326
	c-21.312,0-38.589-17.384-38.589-38.828V63.801h339.585V409.371z"/>
<path style="fill:#FFF9CF;" d="M122.392,162.813l-16.469,16.571c-1.809,1.82-4.263,2.843-6.822,2.843H71.736V94.863h339.585v87.363
	h-27.365c-2.559,0-5.012-1.023-6.822-2.843l-16.469-16.571l-16.469,16.571c-1.809,1.82-4.263,2.843-6.822,2.843h-32.843
	c-2.559,0-5.012-1.023-6.822-2.843l-16.469-16.571l-16.469,16.571c-1.809,1.82-4.263,2.843-6.822,2.843h-32.843
	c-2.559,0-5.012-1.023-6.822-2.843l-16.469-16.571l-16.469,16.571c-1.809,1.82-4.263,2.843-6.822,2.843h-32.843
	c-2.559,0-5.012-1.023-6.822-2.843L122.392,162.813z M483.676,403.547H153.739c-2.664,0-4.824,2.173-4.824,4.854v16.502
	c0,21.118-16.759,38.287-37.624,38.803c0.322,0.008,0.641,0.025,0.965,0.025h337.656c21.312,0,38.589-17.384,38.589-38.828V408.4
	C488.5,405.72,486.34,403.547,483.676,403.547z"/>
<path style="fill:#C66F60;" d="M390.098,46.621v67.363c0,5.523-4.477,10-10,10H33.5c-5.523,0-10-4.477-10-10V46.621
	c0-5.523,4.477-10,10-10h346.598C385.62,36.621,390.098,41.098,390.098,46.621z"/>
<path style="fill:#DE886C;" d="M419.039,46.621v67.363c0,5.523-4.477,10-10,10H72.089c-5.523,0-10-4.477-10-10V46.621
	c0-5.523,4.477-10,10-10h336.95C414.563,36.621,419.039,41.098,419.039,46.621z"/>
<path style="fill:#FFDC64;" d="M160.733,21.575v63.581h-27.977V21.575c0-7.774,6.263-14.075,13.989-14.075l0,0
	C154.47,7.5,160.733,13.802,160.733,21.575z M344.033,7.5L344.033,7.5c-7.726,0-13.989,6.302-13.989,14.075v63.581h27.977V21.575
	C358.02,13.802,351.757,7.5,344.033,7.5z"/>
<path style="fill:#FF4040;" d="M321.49,296.785L321.49,296.785c-16.486,23.864-37.516,44.199-61.869,59.826l-13.612,8.734
	c-2.732,1.753-6.226,1.753-8.958,0l-13.612-8.734c-24.354-15.627-45.383-35.962-61.869-59.826l0,0
	c-12.763-19.264-10.239-44.914,6.031-61.285l0,0c18.051-18.163,47.318-18.163,65.369,0l2.669,2.686c3.253,3.273,8.527,3.273,11.78,0
	l2.669-2.686c18.051-18.163,47.318-18.163,65.369,0l0,0C331.728,251.871,334.253,277.521,321.49,296.785z"/>
<path style="fill:#ED3C3C;" d="M246.995,364.712l-0.987,0.633c-2.732,1.753-6.226,1.753-8.958,0l-13.612-8.734
	c-24.354-15.627-45.383-35.962-61.869-59.826l0,0c-12.763-19.264-10.239-44.914,6.031-61.285l0,0
	c14.15-14.237,35.189-17.311,52.318-9.228c-6.193,2.66-11.999,6.518-17.052,11.602l0,0c-19.106,19.224-22.071,49.347-7.082,71.969
	l0,0C210.12,330.595,227.388,349.067,246.995,364.712z"/>
<path d="M282.773,214.377c-14.359,0-27.856,5.624-38.005,15.836l-2.669,2.687c-0.319,0.32-0.821,0.32-1.14,0l-2.67-2.688
	c-10.149-10.211-23.646-15.835-38.004-15.834c-14.359,0-27.855,5.624-38.004,15.835c-18.71,18.825-21.639,48.565-6.964,70.715
	c0.027,0.04,0.054,0.08,0.082,0.12c17.14,24.811,38.669,45.629,63.99,61.876L233,371.657c2.591,1.663,5.56,2.494,8.529,2.494
	c2.969,0,5.939-0.831,8.529-2.493l13.612-8.734c25.32-16.247,46.85-37.065,63.99-61.876c0.028-0.04,0.055-0.08,0.082-0.12
	c14.675-22.149,11.746-51.89-6.964-70.715v-0.001C310.629,220.001,297.132,214.377,282.773,214.377z M315.275,292.584
	c-15.998,23.141-36.086,42.56-59.706,57.715l-13.612,8.734c-0.264,0.169-0.592,0.171-0.857,0l-13.612-8.734
	c-23.62-15.155-43.708-34.574-59.706-57.714c-10.719-16.239-8.564-38.013,5.137-51.799c7.312-7.357,17.031-11.409,27.366-11.409
	c10.334,0,20.053,4.052,27.364,11.408l2.67,2.687c2.992,3.011,6.973,4.669,11.209,4.669c4.237,0,8.218-1.658,11.21-4.669
	l2.668-2.686c7.313-7.357,17.031-11.409,27.366-11.408c10.334,0,20.053,4.052,27.365,11.409l0,0
	C323.839,254.572,325.994,276.346,315.275,292.584z M191.685,44.121h130.858v33.535h-2.629c-4.142,0-7.5,3.357-7.5,7.5
	s3.358,7.5,7.5,7.5h48.236c4.142,0,7.5-3.357,7.5-7.5s-3.358-7.5-7.5-7.5h-2.63V21.575C365.52,9.679,355.88,0,344.033,0
	c-11.849,0-21.489,9.679-21.489,21.575v7.546H191.685c-4.142,0-7.5,3.357-7.5,7.5S187.542,44.121,191.685,44.121z M344.033,15
	c3.578,0,6.488,2.949,6.488,6.575v56.081h-12.977V21.575C337.543,17.949,340.454,15,344.033,15z M483.676,396.047H153.739
	c-6.795,0-12.324,5.542-12.324,12.354v16.502c0,16.849-13.597,30.893-30.31,31.306c-0.167,0.004-0.33,0.022-0.493,0.037
	c-0.096-0.004-0.189-0.015-0.286-0.015c-17.143,0-31.089-14.054-31.089-31.328V189.727h19.865c4.588,0,8.9-1.795,12.142-5.056
	l11.149-11.219l11.149,11.219c3.24,3.26,7.552,5.056,12.141,5.056h32.843c4.589,0,8.901-1.796,12.142-5.056l11.149-11.219
	l11.149,11.219c3.193,3.213,7.619,5.056,12.142,5.056h32.843c4.588,0,8.9-1.795,12.142-5.056l11.149-11.219l11.149,11.219
	c3.24,3.26,7.552,5.056,12.141,5.056h32.844c4.589,0,8.901-1.796,12.141-5.056l11.149-11.219l11.15,11.219
	c3.241,3.261,7.552,5.056,12.141,5.056h19.865v185.022c0,4.143,3.358,7.5,7.5,7.5s7.5-3.357,7.5-7.5V128.634
	c4.644-3.082,7.718-8.363,7.718-14.356v-67.95c0-9.488-7.692-17.207-17.147-17.207h-26.369c-4.142,0-7.5,3.357-7.5,7.5
	s3.358,7.5,7.5,7.5h26.369c1.184,0,2.147,0.99,2.147,2.207v67.949c0,0.461-0.14,0.89-0.376,1.244
	c-1.28,0.027-2.479,0.372-3.524,0.963H71.736c-1.184,0-2.147-0.99-2.147-2.207V46.328c0-1.217,0.963-2.207,2.147-2.207h53.52v33.535
	h-2.63c-4.142,0-7.5,3.357-7.5,7.5s3.358,7.5,7.5,7.5h48.236c4.142,0,7.5-3.357,7.5-7.5s-3.358-7.5-7.5-7.5h-2.629V21.575
	C168.233,9.679,158.593,0,146.744,0s-21.488,9.679-21.488,21.575v7.546h-53.52c-0.108,0-0.213,0.014-0.32,0.016
	c-0.108-0.005-0.214-0.016-0.323-0.016H33.147C23.692,29.121,16,36.84,16,46.328v67.949c0,6.787,3.946,12.651,9.647,15.45v355.358
	c0,14.841,12.02,26.914,26.794,26.914h300.996c14.774,0,26.794-12.073,26.794-26.914V471.23h69.678
	c25.414,0,46.089-20.783,46.089-46.328V408.4C496,401.589,490.472,396.047,483.676,396.047z M146.744,15
	c3.578,0,6.489,2.949,6.489,6.575v56.081h-12.977V21.575C140.256,17.949,143.167,15,146.744,15z M383.957,174.727
	c-0.565,0-1.099-0.224-1.502-0.63l-16.469-16.571c-1.408-1.416-3.323-2.213-5.32-2.213s-3.912,0.797-5.32,2.213l-16.469,16.571
	c-0.403,0.406-0.937,0.63-1.501,0.63h-32.844c-0.565,0-1.098-0.224-1.501-0.63l-16.469-16.571c-1.408-1.416-3.323-2.213-5.32-2.213
	s-3.912,0.797-5.32,2.213l-16.468,16.571c-0.404,0.406-0.938,0.63-1.503,0.63h-32.843c-0.565,0-1.099-0.224-1.502-0.63
	l-16.469-16.571c-1.408-1.416-3.323-2.213-5.32-2.213s-3.912,0.797-5.32,2.213l-16.469,16.571c-0.403,0.406-0.937,0.63-1.502,0.63
	h-32.843c-0.565,0-1.098-0.224-1.501-0.63l-16.469-16.571c-1.408-1.416-3.323-2.213-5.32-2.213s-3.912,0.797-5.32,2.213
	l-16.468,16.571c-0.404,0.406-0.938,0.63-1.503,0.63H79.236v-43.242h324.585v43.242H383.957z M31,46.328
	c0-1.217,0.963-2.207,2.147-2.207h21.599c-0.093,0.725-0.157,1.458-0.157,2.207v67.949c0,0.75,0.064,1.482,0.157,2.207H33.147
	c-1.184,0-2.147-0.99-2.147-2.207V46.328z M365.232,485.086c0,6.569-5.291,11.914-11.794,11.914H52.442
	c-6.503,0-11.794-5.345-11.794-11.914V131.484h23.589v293.418c0,25.545,20.676,46.328,46.089,46.328
	c0.229,0,0.454-0.014,0.677-0.034c0.036,0.001,0.07,0.007,0.105,0.008l0.262,0.008c0.294,0.01,0.588,0.019,0.884,0.019h252.978
	V485.086z M481,424.902c0,17.274-13.947,31.328-31.089,31.328H144.273c7.841-8.567,12.142-19.637,12.142-31.328v-13.855H481V424.902
	z"/>
<g>
</g>
<g>
</g>
<g>
</g>
<g>
</g>
<g>
</g>
<g>
</g>
<g>
</g>
<g>
</g>
<g>
</g>
<g>
</g>
<g>
</g>
<g>
</g>
<g>
</g>
<g>
</g>
<g>
</g>
</svg>
