<?xml version="1.0" encoding="iso-8859-1"?>
<!-- Generator: Adobe Illustrator 19.0.0, SVG Export Plug-In . SVG Version: 6.00 Build 0)  -->
<svg version="1.1" id="Capa_1" xmlns="http://www.w3.org/2000/svg" xmlns:xlink="http://www.w3.org/1999/xlink" x="0px" y="0px"
	 viewBox="0 0 512.001 512.001" style="enable-background:new 0 0 512.001 512.001;" xml:space="preserve">
<path style="fill:#8ABBD5;" d="M32.449,441.092V292.378h-0.003c0-12.424,14.706-22.53,27.13-22.53H29.49
	c-12.424,0-22.53,10.106-22.53,22.53h0.003v148.714c0,23.281,18.873,42.154,42.154,42.154h30.086
	C55.922,483.246,32.449,464.373,32.449,441.092z"/>
<rect x="43.9" y="237.406" style="fill:#FF94D2;" width="33.654" height="32.447"/>
<g>
	<path style="fill:#F5E0BC;" d="M59.853,421.686h1.207c8.96,0,16.224,7.263,16.224,16.224l0,0c0,8.96-7.263,16.224-16.224,16.224
		h-1.207c-8.96,0-16.223-7.263-16.223-16.224l0,0C43.629,428.949,50.894,421.686,59.853,421.686z"/>
	<rect x="83.184" y="299.32" style="fill:#F5E0BC;" width="181.509" height="185.029"/>
</g>
<path style="fill:#FF94D2;" d="M173.939,441.379c-29.268,0-53.081-23.813-53.081-53.081c0-29.268,23.813-53.081,53.081-53.081
	s53.081,23.813,53.081,53.081C227.02,417.566,203.207,441.379,173.939,441.379z"/>
<path style="fill:#B5D3E3;" d="M6.96,292.378c0-12.424,10.106-22.53,22.53-22.53h288.898c12.443,0,22.53,10.087,22.53,22.53v148.714
	c0,23.281-18.873,42.154-42.154,42.154h-57.378v-48.642c9.077-13.179,14.406-29.13,14.406-46.306
	c0-45.132-36.718-81.852-81.852-81.852c-45.132,0-81.852,36.72-81.852,81.852c0,17.177,5.329,33.127,14.406,46.306v48.642H49.117
	c-23.281,0-42.154-18.873-42.154-42.154V292.378H6.96z"/>
<rect x="370.991" y="211.784" style="fill:#FF94D2;" width="44.631" height="197.995"/>
<rect x="370.991" y="211.784" style="fill:#F77CC9;" width="23.695" height="197.995"/>
<circle style="fill:#B5D3E3;" cx="393.313" cy="140.795" r="110.61"/>
<path style="fill:#8ABBD5;" d="M312.782,140.799c0-55.986,41.597-102.25,95.569-109.59c-4.92-0.669-9.94-1.023-15.043-1.023
	c-61.089,0-110.612,49.523-110.612,110.612S332.219,251.41,393.308,251.41c5.103,0,10.123-0.353,15.043-1.023
	C354.38,243.049,312.782,196.785,312.782,140.799z"/>
<circle style="fill:#F5E0BC;" cx="393.313" cy="140.795" r="81.037"/>
<path style="fill:#EC5569;" d="M173.939,410.564c-12.276,0-22.265-9.989-22.265-22.265c0-12.276,9.989-22.265,22.265-22.265
	c12.276,0,22.265,9.989,22.265,22.265C196.204,400.574,186.215,410.564,173.939,410.564z"/>
<rect x="270.428" y="238.71" style="fill:#FF94D2;" width="27.502" height="31.137"/>
<polygon style="fill:#F5E0BC;" points="140.274,235.507 207.603,235.507 226.713,269.848 121.165,269.848 "/>
<path style="fill:#B5D3E3;" d="M465.53,335.036v-3.916c0-10.692-8.667-19.36-19.36-19.36H340.918v42.637H446.17
	C456.862,354.396,465.53,345.728,465.53,335.036z"/>
<rect x="340.916" y="311.754" style="fill:#8ABBD5;" width="30.084" height="42.637"/>
<path style="fill:#EC5569;" d="M429.623,114.837L429.623,114.837c-8.206-8.206-21.509-8.206-29.715,0l-4.635,4.635
	c-1.105,1.105-2.897,1.105-4.002,0l-4.561-4.561c-8.205-8.206-21.509-8.206-29.715,0l0,0c-8.206,8.206-8.206,21.509,0,29.715
	l34.278,34.278c1.105,1.105,2.897,1.105,4.002,0l34.347-34.352C437.829,136.346,437.829,123.042,429.623,114.837z"/>
<path d="M174.5,357.798c-16.424,0-29.787,13.362-29.787,29.787c0,16.424,13.362,29.787,29.787,29.787s29.787-13.362,29.787-29.787
	C204.287,371.16,190.924,357.798,174.5,357.798z M174.5,402.328c-8.13,0-14.744-6.615-14.744-14.744s6.615-14.744,14.744-14.744
	s14.744,6.615,14.744,14.744S182.63,402.328,174.5,402.328z"/>
<path d="M61.622,413.452h-1.207c-13.093,0-23.745,10.652-23.745,23.745c0,13.093,10.652,23.745,23.745,23.745h1.207
	c13.093,0,23.745-10.652,23.745-23.745C85.366,424.103,74.715,413.452,61.622,413.452z M61.622,445.899h-1.207
	c-4.798,0-8.702-3.904-8.702-8.702s3.904-8.702,8.702-8.702h1.207c4.798,0,8.702,3.904,8.702,8.702S66.42,445.899,61.622,445.899z"
	/>
<path d="M393.87,51.53c-48.831,0-88.559,39.727-88.559,88.558c0,39.344,26.391,74.364,64.18,85.16
	c7.891,2.255,16.094,3.399,24.379,3.399c8.284,0,16.486-1.143,24.379-3.399c37.788-10.797,64.179-45.816,64.179-85.16
	C482.427,91.256,442.701,51.53,393.87,51.53z M414.116,210.784c-13.096,3.742-27.397,3.742-40.493,0
	c-31.365-8.961-53.27-38.033-53.27-70.697c0-40.537,32.979-73.516,73.517-73.516c40.537,0,73.516,32.979,73.516,73.516
	C467.385,172.752,445.479,201.823,414.116,210.784z"/>
<path d="M393.87,21.947c-65.139,0-118.132,52.999-118.132,118.141c0,53.788,36.78,100.906,88.299,114.327v49.112h-15.035v-11.861
	c0-16.57-13.481-30.051-30.051-30.051h-12.932v-23.616c0-4.154-3.366-7.521-7.521-7.521h-27.503c-4.155,0-7.521,3.367-7.521,7.521
	v23.616h-31.775l-16.96-30.478c-1.327-2.385-3.843-3.864-6.572-3.864h-18.55c-4.155,0-7.521,3.367-7.521,7.521
	c0,4.154,3.366,7.521,7.521,7.521h14.129l10.739,19.3h-79.963l10.739-19.3h14.236c4.155,0,7.521-3.367,7.521-7.521
	c0-4.154-3.366-7.521-7.521-7.521h-18.659c-2.73,0-5.245,1.479-6.572,3.865l-16.959,30.477H85.635v-24.926
	c0-4.154-3.366-7.521-7.521-7.521h-2.906v-9.355c0-4.154-3.366-7.521-7.521-7.521H54.889c-4.155,0-7.521,3.367-7.521,7.521v9.355
	h-2.906c-4.155,0-7.521,3.367-7.521,7.521v24.926h-6.889C13.481,261.614,0,275.095,0,291.665c0,0.071,0.001,0.142,0.003,0.213
	v148.501c0,27.391,22.285,49.675,49.675,49.675h57.378h134.891h0.471h56.907c27.391,0,49.675-22.284,49.675-49.675v-79.171h15.035
	v47.864c0,4.154,3.366,7.521,7.521,7.521h44.625c4.155,0,7.521-3.367,7.521-7.521v-47.864h23.024
	c14.825,0,26.886-12.061,26.886-26.885v-3.921c0-14.819-12.061-26.875-26.886-26.875h-23.024v-49.128
	c17.157-4.474,33.239-12.838,46.819-24.423c3.159-2.696,3.536-7.443,0.84-10.603c-2.696-3.159-7.441-3.538-10.604-0.84
	c-13.221,11.28-29.151,19.074-46.068,22.537c-0.015,0.003-0.031,0.006-0.046,0.009c-13.534,2.784-27.982,2.784-41.582,0.004h-0.001
	c-47.678-9.775-82.283-52.25-82.283-100.995c0-56.848,46.246-103.099,103.09-103.099c56.843,0,103.089,46.251,103.089,103.099
	c0,20.347-5.916,40.024-17.11,56.905c-2.295,3.462-1.35,8.129,2.112,10.425c3.461,2.293,8.128,1.35,10.425-2.112
	c12.832-19.352,19.615-41.905,19.615-65.217C512,74.944,459.007,21.947,393.87,21.947z M278.513,245.519h12.461v16.095h-12.461
	V245.519z M51.983,244.208h2.906h12.799h2.906v17.405H51.982L51.983,244.208L51.983,244.208z M235.753,429.624
	c-0.863,1.255-1.327,2.743-1.327,4.266v41.121h-52.405v-27.309c29.878-3.717,53.082-29.251,53.082-60.119
	c0-33.417-27.186-60.603-60.603-60.603s-60.603,27.186-60.603,60.603c0,30.868,23.204,56.401,53.082,60.119v27.309h-52.402V433.89
	c0-1.524-0.463-3.011-1.327-4.266c-8.557-12.424-13.08-26.962-13.08-42.04c0-40.986,33.345-74.331,74.331-74.331
	c40.986,0,74.33,33.345,74.33,74.331C248.833,402.663,244.31,417.201,235.753,429.624z M174.5,433.145
	c-25.122,0-45.561-20.438-45.561-45.56c0-25.122,20.438-45.561,45.561-45.561s45.561,20.438,45.561,45.561
	C220.06,412.707,199.623,433.145,174.5,433.145z M333.958,440.379c0,19.097-15.537,34.633-34.633,34.633h-49.857v-38.838
	c9.432-14.499,14.406-31.246,14.406-48.59c0-49.281-40.092-89.374-89.373-89.374c-49.281,0-89.374,40.092-89.374,89.374
	c0,17.344,4.974,34.091,14.406,48.59v38.838H49.678c-19.097,0-34.633-15.537-34.633-34.633V291.665c0-0.058-0.001-0.115-0.002-0.173
	c0.094-8.196,6.79-14.836,15.008-14.836h14.41h33.654h43.611h105.547h43.719h27.503h20.453c8.276,0,15.009,6.733,15.009,15.009
	v148.714H333.958z M408.661,401.551h-29.583v-40.343h29.583V401.551z M458.57,330.402v3.921c0,6.53-5.313,11.843-11.844,11.843H349
	v-27.597h97.726C453.257,318.568,458.57,323.876,458.57,330.402z M408.661,257.288v46.238h-29.583v-46.224
	C388.873,258.522,398.888,258.507,408.661,257.288z"/>
<path d="M393.274,187.254c-2.766,0-5.366-1.077-7.321-3.033l-34.278-34.278c-5.389-5.389-8.356-12.554-8.356-20.176
	s2.967-14.786,8.356-20.176c11.127-11.125,29.229-11.124,40.352,0l1.243,1.243l1.317-1.318c5.39-5.389,12.555-8.356,20.176-8.356
	c7.622,0,14.786,2.967,20.176,8.356h0.001c11.124,11.124,11.124,29.226,0,40.35l-34.347,34.352
	C398.638,186.178,396.039,187.254,393.274,187.254z M371.852,116.284c-3.454,0-6.909,1.316-9.539,3.945
	c-2.548,2.548-3.951,5.936-3.951,9.54c0,3.604,1.403,6.991,3.95,9.539l30.962,30.962l31.03-31.035c5.26-5.261,5.26-13.819,0-19.079
	c-5.258-5.259-13.817-5.261-19.079,0l-4.634,4.635c-1.956,1.955-4.556,3.032-7.321,3.032c-2.766,0-5.366-1.077-7.321-3.033
	l-4.56-4.56C378.762,117.599,375.307,116.284,371.852,116.284z"/>
<g>
</g>
<g>
</g>
<g>
</g>
<g>
</g>
<g>
</g>
<g>
</g>
<g>
</g>
<g>
</g>
<g>
</g>
<g>
</g>
<g>
</g>
<g>
</g>
<g>
</g>
<g>
</g>
<g>
</g>
</svg>
