<?xml version="1.0" encoding="iso-8859-1"?>
<!-- Generator: Adobe Illustrator 19.0.0, SVG Export Plug-In . SVG Version: 6.00 Build 0)  -->
<svg version="1.1" id="Capa_1" xmlns="http://www.w3.org/2000/svg" xmlns:xlink="http://www.w3.org/1999/xlink" x="0px" y="0px"
	 viewBox="0 0 512 512" style="enable-background:new 0 0 512 512;" xml:space="preserve">
<path style="fill:#BDC5D1;" d="M504.5,272.918c0,127.899-103.683,231.582-231.582,231.582S41.336,400.817,41.336,272.918
	S145.019,41.336,272.918,41.336S504.5,145.019,504.5,272.918z"/>
<path style="fill:#9BA1A8;" d="M485.086,272.918c0,117.177-94.991,212.168-212.168,212.168S60.75,390.095,60.75,272.918
	S155.741,60.75,272.918,60.75S485.086,155.741,485.086,272.918z"/>
<path style="fill:#F5F5F5;" d="M469.832,272.918c0,108.753-88.161,196.914-196.914,196.914S76.004,381.671,76.004,272.918
	S164.165,76.004,272.918,76.004S469.832,164.165,469.832,272.918z"/>
<path style="fill:#E5E5E5;" d="M286.832,469.336c-4.597,0.321-9.235,0.496-13.914,0.496c-108.753,0-196.914-88.161-196.914-196.914
	S164.165,76.004,272.918,76.004c4.679,0,9.316,0.175,13.914,0.496c-102.259,7.14-183.001,92.344-183.001,196.418
	S184.573,462.196,286.832,469.336z"/>
<path style="fill:#9BA1A8;" d="M298.156,272.918c0,13.939-11.3,25.238-25.238,25.238s-25.238-11.3-25.238-25.238
	c0-13.939,11.3-25.238,25.238-25.238S298.156,258.979,298.156,272.918z"/>
<path style="fill:#FF4040;" d="M24.684,59.228L24.684,59.228c21.939-21.939,57.508-21.939,79.447,0l3.244,3.244
	c3.953,3.953,10.363,3.953,14.317,0l3.244-3.244c21.939-21.939,57.508-21.939,79.447,0l0,0c19.774,19.774,22.842,50.757,7.33,74.025
	l0,0c-20.037,28.825-45.595,53.387-75.193,72.262l-16.543,10.55c-3.32,2.117-7.567,2.117-10.887,0l-16.543-10.55
	c-29.598-18.876-55.156-43.438-75.193-72.262l0,0C1.842,109.985,4.91,79.002,24.684,59.228z"/>
<path style="fill:#ED3C3C;" d="M115.877,217.559c-2.324,0.311-4.733-0.184-6.787-1.494l-16.543-10.55
	c-29.598-18.876-55.156-43.438-75.193-72.262l0,0C1.842,109.985,4.91,79.002,24.684,59.228l0,0
	c15.475-15.475,37.729-20.019,57.201-13.662c-7.888,3.293-15.281,8.137-21.7,14.555l0,0c-23.764,23.764-27.451,60.999-8.809,88.962
	l0,0C69.405,175.021,91.155,198.084,115.877,217.559z"/>
<path d="M450.657,113.039c-39.242-43.604-92.814-71.201-150.85-77.704c-4.114-0.465-7.826,2.502-8.288,6.618
	c-0.462,4.117,2.502,7.828,6.618,8.289c113.356,12.704,198.838,108.434,198.838,222.677C496.975,396.477,396.453,497,272.893,497
	C149.334,497,48.811,396.477,48.811,272.918c0-27.366,4.865-53.995,14.442-79.279c5.312,4.305,10.797,8.417,16.45,12.334
	c-7.445,21.481-11.224,43.982-11.224,66.945c0,112.714,91.7,204.414,204.414,204.414c49.895,0,97.943-18.176,135.295-51.179
	c3.104-2.742,3.397-7.482,0.654-10.586c-2.744-3.104-7.483-3.398-10.586-0.654c-34.608,30.579-79.13,47.419-125.363,47.419
	c-104.443,0-189.414-84.971-189.414-189.414c0-19.999,3.094-39.613,9.186-58.416l12.367,7.886c2.879,1.836,6.178,2.754,9.477,2.754
	c3.298,0,6.598-0.918,9.476-2.753l16.543-10.55c30.594-19.511,56.608-44.511,77.318-74.306c0.028-0.04,0.055-0.08,0.082-0.121
	c9.763-14.644,12.964-32.096,9.993-48.523c12.239-2.979,24.793-4.729,37.472-5.224v157.391c-3.486,0.821-6.76,2.196-9.72,4.034
	l-36.602-36.601l10.129,0.921c4.131,0.374,7.773-2.665,8.148-6.79s-2.665-7.773-6.79-8.148l-30.759-2.796
	c-0.05-0.005-0.1-0.002-0.15-0.005c-0.203-0.014-0.406-0.024-0.61-0.021c-0.094,0.001-0.186,0.009-0.28,0.013
	c-0.167,0.008-0.334,0.018-0.5,0.037c-0.097,0.011-0.193,0.027-0.29,0.042c-0.163,0.025-0.326,0.055-0.487,0.091
	c-0.092,0.021-0.182,0.043-0.273,0.067c-0.167,0.044-0.331,0.094-0.495,0.149c-0.082,0.028-0.163,0.055-0.244,0.085
	c-0.17,0.064-0.338,0.137-0.504,0.214c-0.071,0.033-0.143,0.064-0.213,0.099c-0.171,0.086-0.338,0.182-0.503,0.282
	c-0.061,0.037-0.124,0.07-0.185,0.109c-0.169,0.109-0.333,0.229-0.495,0.353c-0.051,0.039-0.105,0.073-0.155,0.114
	c-0.207,0.167-0.408,0.345-0.6,0.537s-0.37,0.393-0.537,0.6c-0.04,0.049-0.073,0.102-0.112,0.152
	c-0.125,0.163-0.246,0.328-0.355,0.498c-0.038,0.06-0.072,0.122-0.108,0.183c-0.1,0.166-0.197,0.333-0.283,0.505
	c-0.035,0.07-0.065,0.141-0.098,0.211c-0.077,0.167-0.15,0.334-0.214,0.504c-0.031,0.081-0.058,0.163-0.086,0.245
	c-0.055,0.163-0.105,0.327-0.149,0.493c-0.024,0.091-0.046,0.182-0.067,0.275c-0.036,0.161-0.065,0.322-0.09,0.485
	c-0.015,0.097-0.031,0.194-0.042,0.291c-0.019,0.167-0.03,0.334-0.037,0.501c-0.004,0.093-0.012,0.184-0.013,0.277
	c-0.002,0.212,0.007,0.424,0.023,0.636c0.003,0.042,0.001,0.083,0.004,0.125l0.003,0.035c0,0.003,0,0.005,0.001,0.008l2.792,30.716
	c0.354,3.894,3.625,6.821,7.46,6.821c0.228,0,0.457-0.01,0.688-0.031c4.125-0.375,7.165-4.023,6.79-8.148l-0.921-10.129
	l36.602,36.602c-3.11,5.007-4.912,10.906-4.912,17.221c0,15.471,10.791,28.46,25.238,31.861v30.264c0,4.142,3.357,7.5,7.5,7.5
	s7.5-3.358,7.5-7.5v-30.264c3.487-0.821,6.76-2.196,9.72-4.034l20.187,20.187c1.465,1.464,3.385,2.197,5.304,2.197
	s3.839-0.732,5.304-2.197c2.929-2.929,2.929-7.678,0-10.606l-20.188-20.188c3.109-5.006,4.911-10.906,4.911-17.22
	c0-15.471-10.791-28.46-25.238-31.861V7.5c0-4.142-3.357-7.5-7.5-7.5s-7.5,3.358-7.5,7.5v26.461
	c-21.758,0.672-43.2,4.257-63.84,10.702c-0.75,0.234-1.437,0.577-2.05,1.003c-24.688-16.164-58.222-13.413-79.895,8.259
	l-3.243,3.244c-1.023,1.023-2.688,1.022-3.71,0.001l-3.245-3.245c-24.828-24.827-65.226-24.827-90.054,0
	C-2.87,76.15-6.346,111.262,11.088,137.413c0.027,0.041,0.054,0.081,0.082,0.121c11.695,16.824,25.082,32.118,40.028,45.759
	C39.67,211.77,33.81,241.904,33.81,272.918c0,63.861,24.869,123.9,70.026,169.057C148.993,487.131,209.032,512,272.893,512
	s123.9-24.869,169.057-70.025s70.025-105.195,70.025-169.057C511.975,213.756,490.199,156.977,450.657,113.039z M290.631,272.918
	c0,9.781-7.957,17.738-17.738,17.738s-17.738-7.958-17.738-17.738s7.957-17.738,17.738-17.738S290.631,263.137,290.631,272.918z
	 M265.393,68.649c-14.146,0.512-28.154,2.487-41.8,5.866c-2.687-6.263-6.37-12.164-11.019-17.459
	c17.164-4.785,34.872-7.499,52.819-8.09V68.649z M23.529,129.032c-13.437-20.216-10.736-47.331,6.434-64.5
	c18.98-18.979,49.862-18.978,68.84,0l3.245,3.246c6.872,6.87,18.052,6.87,24.924-0.001l3.244-3.244
	c18.979-18.979,49.861-18.979,68.84,0c17.169,17.17,19.87,44.286,6.433,64.502c-19.565,28.129-44.134,51.734-73.025,70.159
	l-16.544,10.55c-0.856,0.548-1.963,0.546-2.821,0l-16.543-10.55C67.664,180.768,43.094,157.161,23.529,129.032z M291.035,76.685
	c0.532-4.109,4.307-7.008,8.402-6.473c48.826,6.333,93.775,30.224,126.569,67.271c33.082,37.373,51.301,85.471,51.301,135.434
	c0,48.604-17.353,95.706-48.86,132.626c-1.483,1.738-3.59,2.631-5.709,2.631c-1.722,0-3.452-0.59-4.864-1.795
	c-3.151-2.689-3.525-7.423-0.837-10.574c29.193-34.208,45.271-77.851,45.271-122.889c0-94.894-70.849-175.643-164.8-187.831
	C293.4,84.555,290.501,80.793,291.035,76.685z M146.702,265.418c4.142,0,7.5,3.358,7.5,7.5s-3.358,7.5-7.5,7.5h-29.121
	c-4.142,0-7.5-3.358-7.5-7.5s3.358-7.5,7.5-7.5H146.702z M428.206,280.418h-29.121c-4.143,0-7.5-3.358-7.5-7.5s3.357-7.5,7.5-7.5
	h29.121c4.143,0,7.5,3.358,7.5,7.5S432.348,280.418,428.206,280.418z M188.965,356.846c2.929,2.929,2.929,7.678,0,10.606
	l-20.591,20.592c-1.464,1.464-3.384,2.197-5.303,2.197s-3.839-0.732-5.303-2.197c-2.929-2.929-2.929-7.678,0-10.606l20.591-20.592
	C181.288,353.917,186.037,353.917,188.965,356.846z M388.019,168.398l-20.592,20.592c-1.465,1.464-3.385,2.197-5.304,2.197
	s-3.839-0.732-5.304-2.197c-2.929-2.929-2.929-7.678,0-10.606l20.592-20.592c2.93-2.929,7.678-2.929,10.607,0
	C390.948,160.721,390.948,165.47,388.019,168.398z M388.019,377.438c2.929,2.929,2.929,7.678,0,10.606
	c-1.465,1.464-3.385,2.197-5.304,2.197s-3.839-0.732-5.304-2.197l-20.592-20.592c-2.929-2.929-2.929-7.678,0-10.606
	c2.93-2.929,7.678-2.929,10.607,0L388.019,377.438z M280.393,399.109v29.121c0,4.142-3.357,7.5-7.5,7.5s-7.5-3.358-7.5-7.5v-29.121
	c0-4.142,3.357-7.5,7.5-7.5S280.393,394.967,280.393,399.109z"/>
<g>
</g>
<g>
</g>
<g>
</g>
<g>
</g>
<g>
</g>
<g>
</g>
<g>
</g>
<g>
</g>
<g>
</g>
<g>
</g>
<g>
</g>
<g>
</g>
<g>
</g>
<g>
</g>
<g>
</g>
</svg>
