<?xml version="1.0" encoding="iso-8859-1"?>
<!-- Generator: Adobe Illustrator 19.0.0, SVG Export Plug-In . SVG Version: 6.00 Build 0)  -->
<svg version="1.1" id="Capa_1" xmlns="http://www.w3.org/2000/svg" xmlns:xlink="http://www.w3.org/1999/xlink" x="0px" y="0px"
	 viewBox="0 0 512 512" style="enable-background:new 0 0 512 512;" xml:space="preserve">
<rect x="201.93" y="309.44" style="fill:#E3A76F;" width="108.137" height="154.846"/>
<g>
	<rect x="255.999" y="309.44" style="fill:#F2BB88;" width="54.069" height="154.846"/>
	<path style="fill:#F2BB88;" d="M391.76,155.025l-8.634,74.364c0,46.698-60.604,84.647-99.326,104.128
		c-2.172,1.086-4.385,2.057-6.629,2.892c-18.364,6.922-38.962,5.617-56.47-3.748c-36.832-19.721-92.78-57.253-92.78-103.272
		l-8.644-74.364c0-20.452,4.521-39.818,12.528-57.023c19.638-42.188,60.291-71.336,106.978-71.336h33.481
		c2.453,0,4.886,0.084,7.308,0.251c56.679,3.706,103.011,50.373,110.966,109.891C391.343,142.758,391.76,148.844,391.76,155.025z"/>
</g>
<path style="fill:#F2D1A5;" d="M391.76,155.025l-8.634,74.364c0,46.698-60.604,84.647-99.326,104.128
	c-2.172,1.086-4.385,2.057-6.629,2.892c-2.829-1.054-5.606-2.307-8.31-3.748c-36.832-19.721-92.78-57.253-92.78-103.272
	l-8.644-74.364c0-20.452,4.521-39.818,12.528-57.023c18.594-39.954,56.042-68.204,99.608-71.086
	c56.679,3.706,103.011,50.373,110.966,109.891C391.343,142.758,391.76,148.844,391.76,155.025z"/>
<path style="fill:#8CC5DB;" d="M506.798,511.654H5.2c-3.195,0-5.627-2.861-5.136-6.013c5.283-33.961,9.949-56.94,13.363-61.136
	c16.84-20.473,116.155-39.996,143.309-46.949h4.353l94.858,0.042l99.221-0.042c27.154,6.953,126.47,26.476,143.309,46.949
	c3.069,3.779,7.193,22.738,11.87,51.229c0.522,3.184,1.054,6.494,1.587,9.908C512.436,508.793,509.993,511.654,506.798,511.654z"/>
<path style="fill:#A6D2E3;" d="M510.348,495.733H75.795c-3.195,0-5.638-2.85-5.147-6.003c5.283-33.972,9.96-56.94,13.363-61.136
	c9.281-11.286,43.587-22.279,77.078-31.038l94.858,0.042l99.221-0.042c27.154,6.953,126.47,26.476,143.309,46.949
	C501.547,448.283,505.671,467.242,510.348,495.733z"/>
<g>
	<path style="fill:#8CC5DB;" d="M304.754,451.368c-3.342,2.73-8.375,1.03-9.358-3.172c-4.24-18.121-13.575-58.042-16.065-68.858
		c-0.401-1.74,0.805-3.645,2.586-3.79h66.096c7.726,0,15.425,20.706,15.925,21.994C365.201,401.487,322.23,437.093,304.754,451.368z
		"/>
	<path style="fill:#8CC5DB;" d="M232.956,379.384c-1.68,9.742-8.615,49.942-11.808,68.453c-0.743,4.312-5.787,6.279-9.271,3.632
		c-18.694-14.198-65.093-49.94-63.817-53.923c0.5-1.288,8.201-21.994,15.925-21.994H230.5
		C232.137,375.805,233.238,377.751,232.956,379.384z"/>
</g>
<path style="fill:#9C6A53;" d="M390.538,136.802c-0.203-0.309-0.405-0.628-0.607-0.958c-27.455-44.488-85.074-59.984-98.127-62.991
	c-1.186-0.274-2.21,0.851-1.838,2.01l6.824,21.285c0.319,0.998-0.408,2.034-1.456,2.051c-31.942,0.531-68.127-10.884-82.736-16.024
	c-1.571-0.553-2.803,1.406-1.629,2.587l22.674,22.784c1.006,1.012,0.254,2.738-1.172,2.676
	c-29.385-1.295-73.022-7.737-100.668-12.225c19.642-42.19,60.298-71.338,106.98-71.338h33.481
	C332.23,26.66,382.245,74.748,390.538,136.802z"/>
<g>
	<circle style="fill:#7B5341;" cx="183.378" cy="176.821" r="15.827"/>
	<circle style="fill:#7B5341;" cx="319.505" cy="176.821" r="15.827"/>
	<path style="fill:#7B5341;" d="M160.118,147.328c-2.823,0-5.555-1.505-7.018-4.159c-2.136-3.876-0.698-8.762,3.178-10.897
		c0.973-0.536,24.169-12.975,54.192-0.37c4.08,1.712,5.999,6.409,4.286,10.489c-1.713,4.081-6.413,6-10.489,4.286
		c-22.625-9.498-39.597-0.72-40.308-0.341C162.737,147.009,161.418,147.328,160.118,147.328z"/>
	<path style="fill:#7B5341;" d="M297.142,147.328c-2.823,0-5.555-1.505-7.018-4.159c-2.136-3.876-0.698-8.762,3.178-10.897
		c0.972-0.537,24.167-12.977,54.191-0.37c4.08,1.713,5.999,6.409,4.286,10.489c-1.713,4.081-6.412,6-10.489,4.286
		c-22.626-9.498-39.597-0.72-40.307-0.341C299.761,147.009,298.443,147.328,297.142,147.328z"/>
	<path style="fill:#7B5341;" d="M262.775,251.155h-17.017c-13.095,0-23.749-10.654-23.749-23.749v-61.633
		c0-4.324,3.506-7.83,7.83-7.83s7.83,3.506,7.83,7.83v61.633c0,4.46,3.629,8.089,8.089,8.089h17.017c4.324,0,7.83,3.506,7.83,7.83
		S267.1,251.155,262.775,251.155z"/>
	<path style="fill:#7B5341;" d="M252.369,298.796c-7.406,0-13.898-1.201-19.283-2.82c-16.834-5.061-26.696-15.23-27.108-15.661
		c-2.988-3.126-2.877-8.082,0.248-11.071c3.116-2.981,8.055-2.878,11.048,0.223c1.31,1.339,30.92,30.666,75.637-0.957
		c3.532-2.497,8.418-1.66,10.914,1.872c2.497,3.531,1.659,8.418-1.872,10.914C283.081,294.642,266.143,298.796,252.369,298.796z"/>
</g>
<g>
	<path style="fill:#3993B7;" d="M394.157,117.801c-6.906-26.108-19.277-48.216-36.768-65.706
		C330.471,25.178,294.695,10.199,256.651,9.92l-1.055-0.003c-38.322,0-74.471,15.216-101.789,42.847
		c-27.235,27.547-42.234,63.901-42.234,102.367v23.427c0,4.324,3.506,7.83,7.83,7.83s7.83-3.506,7.83-7.83V155.13
		c0-71.437,57.583-129.554,128.363-129.554l0.938,0.003c33.907,0.248,65.792,13.598,89.783,37.588
		c15.51,15.51,26.512,35.238,32.702,58.638c3.347,12.648,5.044,26.089,5.044,39.95c0,0.55-0.003,1.101-0.008,1.653l-0.145,15.073
		c-0.042,4.324,3.43,7.863,7.754,7.905c0.026,0,0.051,0,0.077,0c4.289,0,7.786-3.457,7.828-7.755l0.145-15.072
		c0.006-0.601,0.009-1.203,0.009-1.805C399.722,146.543,397.849,131.755,394.157,117.801z"/>
	<path style="fill:#3993B7;" d="M186.783,303.054h-10.457c-47.322,0-85.821-38.498-85.821-85.821v-0.457
		c0-4.324,3.506-7.83,7.83-7.83c4.324,0,7.83,3.506,7.83,7.83v0.457c0,38.687,31.473,70.161,70.161,70.161h10.457
		c4.324,0,7.83,3.506,7.83,7.83S191.107,303.054,186.783,303.054z"/>
</g>
<path style="fill:#4B5055;" d="M259.305,288.586c0,6.118-2.506,11.682-6.535,15.712c-4.03,4.03-9.584,6.535-15.702,6.535h-30.119
	c-12.236,0-22.237-10.012-22.237-22.248c0-6.118,2.495-11.672,6.525-15.702c4.03-4.03,9.594-6.535,15.712-6.535h30.119
	c11.327,0,20.744,8.592,22.07,19.575C259.253,286.791,259.305,287.688,259.305,288.586z"/>
<g>
	<path style="fill:#5A5F64;" d="M259.138,285.924h-27.28c-11.327,0-20.744-8.582-22.07-19.575h27.28
		C248.395,266.349,257.812,274.941,259.138,285.924z"/>
	<path style="fill:#5A5F64;" d="M391.927,105.497l-3.905,3.905l-0.553,0.553c-7.183,7.193-19.272,4.875-23.427-4.395
		c-18.552-41.457-60.197-70.418-108.471-70.418c-48.285,0-89.919,28.96-108.471,70.418c-4.061,9.062-15.691,11.474-22.926,4.875
		c-0.167-0.157-0.334-0.313-0.501-0.48l-4.458-4.458c-4.291-4.28-5.46-10.805-2.892-16.297
		c24.45-52.44,77.673-88.855,139.248-88.855s114.798,36.415,139.248,88.855C397.377,94.692,396.218,101.217,391.927,105.497z"/>
</g>
<g>
	<path style="fill:#4B5055;" d="M388.023,109.402l-0.553,0.553c-7.183,7.193-19.272,4.875-23.427-4.395
		c-18.552-41.457-60.197-70.418-108.471-70.418c-48.285,0-89.919,28.96-108.471,70.418c-4.061,9.062-15.691,11.474-22.926,4.875
		c-0.679-2.881-0.407-5.972,0.908-8.78c22.989-49.298,73.028-83.541,130.917-83.541s107.928,34.243,130.917,83.541
		C388.075,104.13,388.419,106.823,388.023,109.402z"/>
	<path style="fill:#4B5055;" d="M142.558,175.988v42.846c0,6.066-1.67,11.755-4.583,16.631
		c-5.711,9.594-16.192,16.057-28.104,16.057c-8.989,0-17.174-3.675-23.093-9.605c-5.93-5.919-9.605-14.094-9.605-23.083v-42.846
		c0-16.443,12.309-30.171,28.188-32.385c1.472-0.209,2.975-0.313,4.51-0.313C127.848,143.29,142.558,158.011,142.558,175.988z"/>
	<path style="fill:#4B5055;" d="M434.825,175.988v42.846c0,6.066-1.67,11.755-4.583,16.631c-1.399,2.359-3.09,4.521-5.022,6.452
		c-5.919,5.93-14.104,9.605-23.093,9.605c-17.978,0-32.688-14.71-32.688-32.688v-42.846c0-16.453,12.319-30.171,28.188-32.385
		c1.472-0.209,2.975-0.313,4.5-0.313C420.115,143.29,434.825,158.011,434.825,175.988z"/>
</g>
<g>
	<path style="fill:#5A5F64;" d="M142.558,175.988v42.846c0,6.066-1.67,11.755-4.583,16.631c-1.472,0.209-2.975,0.313-4.51,0.313
		c-8.989,0-17.163-3.675-23.083-9.605c-5.93-5.919-9.605-14.104-9.605-23.093v-42.835c0-6.066,1.67-11.755,4.583-16.641
		c1.472-0.209,2.975-0.313,4.51-0.313C127.848,143.29,142.558,158.011,142.558,175.988z"/>
	<path style="fill:#5A5F64;" d="M434.825,175.988v42.846c0,6.066-1.67,11.755-4.583,16.631c-1.472,0.209-2.975,0.313-4.51,0.313
		c-17.978,0-32.688-14.71-32.688-32.698v-42.835c0-6.066,1.67-11.755,4.583-16.641c1.472-0.209,2.975-0.313,4.5-0.313
		C420.115,143.29,434.825,158.011,434.825,175.988z"/>
</g>
<g>
</g>
<g>
</g>
<g>
</g>
<g>
</g>
<g>
</g>
<g>
</g>
<g>
</g>
<g>
</g>
<g>
</g>
<g>
</g>
<g>
</g>
<g>
</g>
<g>
</g>
<g>
</g>
<g>
</g>
</svg>
