<?xml version="1.0" encoding="iso-8859-1"?>
<!-- Generator: Adobe Illustrator 19.0.0, SVG Export Plug-In . SVG Version: 6.00 Build 0)  -->
<svg version="1.1" id="Capa_1" xmlns="http://www.w3.org/2000/svg" xmlns:xlink="http://www.w3.org/1999/xlink" x="0px" y="0px"
	 viewBox="0 0 512.001 512.001" style="enable-background:new 0 0 512.001 512.001;" xml:space="preserve">
<g>
	<path style="fill:#F7CF69;" d="M107.483,117.18h-4.423c-5.624,0-10.184-4.559-10.184-10.184V84.794h24.79v22.203
		C117.667,112.621,113.108,117.18,107.483,117.18z"/>
	<path style="fill:#F7CF69;" d="M107.483,396.244h-4.423c-5.624,0-10.184,4.559-10.184,10.184v22.203h24.79v-22.203
		C117.667,400.804,113.108,396.244,107.483,396.244z"/>
	<path style="fill:#F7CF69;" d="M407.837,117.18h-4.423c-5.624,0-10.184-4.559-10.184-10.184V84.794h24.79v22.203
		C418.02,112.621,413.461,117.18,407.837,117.18z"/>
	<path style="fill:#F7CF69;" d="M407.837,396.244h-4.423c-5.624,0-10.184,4.559-10.184,10.184v22.203h24.79v-22.203
		C418.02,400.804,413.461,396.244,407.837,396.244z"/>
</g>
<path style="fill:#DCE6EB;" d="M378.359,28.915h-245.84c-22.061,0-35.85,22.15-24.819,39.869l108.717,174.639
	c5.119,8.224,5.119,18.356,0,26.579L107.7,444.64c-11.031,17.719,2.758,39.869,24.819,39.869h245.84
	c22.061,0,35.85-22.15,24.819-39.869L294.462,270.002c-5.119-8.224-5.119-18.356,0-26.579L403.179,68.784
	C414.209,51.065,400.421,28.915,378.359,28.915z"/>
<path style="fill:#B5D3E3;" d="M138.732,444.64l108.717-174.639c5.119-8.224,5.119-18.356,0-26.579L138.732,68.784
	c-11.031-17.719,2.758-39.869,24.819-39.869h-31.032c-22.061,0-35.85,22.15-24.819,39.869l108.717,174.639
	c5.119,8.224,5.119,18.356,0,26.579L107.701,444.64c-11.031,17.719,2.758,39.869,24.819,39.869h31.032
	C141.49,484.509,127.702,462.36,138.732,444.64z"/>
<rect x="83.022" y="8.219" style="fill:#7ACBA7;" width="344.835" height="76.574"/>
<rect x="83.022" y="8.219" style="fill:#57BF93;" width="28.027" height="76.574"/>
<g>
	<rect x="333.685" y="8.216" style="fill:#F7CF69;" width="52.161" height="76.574"/>
	<rect x="229.354" y="8.216" style="fill:#F7CF69;" width="52.171" height="76.574"/>
	<rect x="125.032" y="8.216" style="fill:#F7CF69;" width="52.161" height="76.574"/>
</g>
<path style="fill:#EC5569;" d="M307.787,173.335L307.787,173.335c-11.828-11.829-31.006-11.829-42.834,0l-6.681,6.682
	c-1.594,1.594-4.176,1.594-5.77,0l-6.574-6.574c-11.829-11.829-31.006-11.829-42.834,0l0,0c-11.829,11.829-11.829,31.006,0,42.834
	l49.413,49.413c1.594,1.594,4.176,1.594,5.77,0l49.511-49.519C319.614,204.34,319.614,185.162,307.787,173.335z"/>
<path style="fill:#E63950;" d="M233.124,216.275c-11.829-11.829-11.829-31.006,0-42.834l0,0c1.954-1.954,4.112-3.578,6.401-4.887
	c-11.566-6.611-26.559-4.987-36.432,4.887l0,0c-11.829,11.829-11.829,31.006,0,42.834l49.413,49.413c1.594,1.594,4.176,1.594,5.77,0
	l12.13-12.132L233.124,216.275z"/>
<g>
	<path style="fill:#EC5569;" d="M292.971,360.344h-17.281c-29.781,0-53.922,24.142-53.922,53.922v13.404h125.127v-13.404
		C346.895,384.485,322.752,360.344,292.971,360.344z"/>
	<path style="fill:#EC5569;" d="M214.704,375.825h-10.345c-22.298,0-40.374,18.076-40.374,40.374v11.471h91.093v-11.471
		C255.078,393.9,237.002,375.825,214.704,375.825z"/>
</g>
<rect x="83.022" y="428.627" style="fill:#7ACBA7;" width="344.835" height="76.574"/>
<rect x="83.022" y="428.627" style="fill:#57BF93;" width="28.027" height="76.574"/>
<path d="M237.098,301.993c-4.146,0-7.507,3.361-7.507,7.507v14.701c0,4.146,3.361,7.507,7.507,7.507
	c4.146,0,7.507-3.361,7.507-7.507V309.5C244.605,305.354,241.244,301.993,237.098,301.993z"/>
<path d="M274.903,312.422c-4.146,0-7.507,3.361-7.507,7.507v14.702c0,4.146,3.361,7.507,7.507,7.507s7.507-3.361,7.507-7.507
	v-14.702C282.41,315.783,279.049,312.422,274.903,312.422z"/>
<path d="M314.147,383.069c-0.19-0.45-0.42-0.891-0.691-1.291c-0.27-0.41-0.591-0.801-0.931-1.141
	c-0.35-0.35-0.731-0.661-1.141-0.931c-0.41-0.27-0.841-0.511-1.301-0.691c-0.45-0.19-0.921-0.33-1.401-0.43
	c-0.971-0.2-1.962-0.2-2.933,0c-0.48,0.1-0.951,0.24-1.401,0.43c-0.46,0.18-0.891,0.42-1.301,0.691
	c-0.41,0.27-0.791,0.581-1.141,0.931c-0.34,0.34-0.661,0.731-0.931,1.141c-0.27,0.4-0.5,0.841-0.691,1.291
	c-0.19,0.46-0.33,0.931-0.43,1.411s-0.15,0.971-0.15,1.461c0,1.982,0.801,3.914,2.202,5.305c0.35,0.35,0.731,0.661,1.141,0.941
	c0.41,0.27,0.841,0.5,1.301,0.691c0.45,0.18,0.921,0.33,1.401,0.42c0.48,0.1,0.981,0.15,1.471,0.15c0.48,0,0.981-0.05,1.461-0.15
	c0.48-0.09,0.951-0.24,1.401-0.42c0.46-0.19,0.891-0.42,1.301-0.691c0.41-0.28,0.791-0.591,1.141-0.941
	c0.34-0.34,0.661-0.721,0.931-1.141c0.27-0.4,0.5-0.841,0.691-1.291s0.33-0.921,0.43-1.401c0.1-0.49,0.15-0.981,0.15-1.471
	c0-0.49-0.05-0.981-0.15-1.461S314.337,383.529,314.147,383.069z"/>
<path d="M324.827,398.454c-0.961-0.19-1.962-0.19-2.933,0c-0.48,0.1-0.951,0.24-1.401,0.43c-0.45,0.18-0.891,0.42-1.301,0.691
	c-0.41,0.27-0.791,0.581-1.141,0.931c-0.34,0.34-0.651,0.731-0.931,1.141c-0.27,0.41-0.5,0.841-0.691,1.291
	c-0.18,0.46-0.33,0.931-0.42,1.411c-0.1,0.48-0.15,0.971-0.15,1.461c0,0.49,0.05,0.981,0.15,1.471c0.09,0.48,0.24,0.951,0.42,1.401
	c0.19,0.45,0.42,0.891,0.691,1.301c0.28,0.41,0.591,0.791,0.931,1.141c0.35,0.34,0.731,0.661,1.141,0.931
	c0.41,0.27,0.851,0.5,1.301,0.691c0.45,0.19,0.921,0.33,1.401,0.43c0.49,0.09,0.981,0.14,1.471,0.14c0.49,0,0.981-0.05,1.461-0.14
	c0.48-0.1,0.951-0.24,1.411-0.43c0.45-0.19,0.881-0.42,1.291-0.691c0.41-0.27,0.801-0.591,1.141-0.931
	c0.35-0.35,0.661-0.731,0.931-1.141c0.27-0.41,0.511-0.851,0.691-1.301c0.19-0.45,0.33-0.921,0.43-1.401
	c0.1-0.49,0.15-0.981,0.15-1.471c0-0.49-0.05-0.981-0.15-1.461s-0.24-0.951-0.43-1.411c-0.18-0.45-0.42-0.881-0.691-1.291
	c-0.27-0.41-0.581-0.801-0.931-1.141c-0.34-0.35-0.731-0.661-1.141-0.931s-0.841-0.51-1.291-0.691
	C325.778,398.694,325.308,398.555,324.827,398.454z"/>
<path d="M406.186,373.331c4.146,0,7.507-3.361,7.507-7.507v-242.66c7.176-2.256,12.395-8.969,12.395-16.879V91.589h2.33
	c4.146,0,7.507-3.361,7.507-7.507V7.507c0-4.146-3.361-7.507-7.507-7.507H83.583c-4.146,0-7.507,3.361-7.507,7.507v76.574
	c0,4.146,3.361,7.507,7.507,7.507h2.347v14.695c0,7.913,5.222,14.627,12.401,16.881l0.237,242.665c0.004,4.144,3.364,7.5,7.507,7.5
	c0.002,0,0.005,0,0.007,0c4.146-0.004,7.504-3.368,7.5-7.514l-0.237-242.655c6.086-1.916,10.761-7.038,12.039-13.378l85.22,136.895
	c3.635,5.838,3.635,12.806,0,18.644l-85.22,136.894c-1.629-8.085-8.784-14.192-17.341-14.192h-4.422
	c-9.755,0-17.691,7.936-17.691,17.691v14.695h-2.347c-4.146,0-7.507,3.361-7.507,7.507v76.574c0,4.146,3.361,7.507,7.507,7.507
	h344.835c4.146,0,7.507-3.361,7.507-7.507v-76.574c0-4.146-3.361-7.507-7.507-7.507h-2.33v-14.695
	c0-9.755-7.936-17.691-17.691-17.691h-4.422c-8.565,0-15.724,6.119-17.344,14.215l-85.235-136.918
	c-3.634-5.837-3.634-12.806,0-18.643l55.932-89.847c2.191-3.52,1.114-8.15-2.405-10.341c-3.521-2.19-8.15-1.113-10.341,2.405
	l-21.406,34.386c-1.764-5.971-4.995-11.442-9.519-15.968l0,0c-14.737-14.736-38.715-14.735-53.451,0l-4.257,4.258l-4.151-4.151
	c-7.139-7.139-16.63-11.071-26.725-11.071c-10.096,0-19.587,3.932-26.726,11.071c-4.594,4.594-7.755,10.087-9.484,15.917
	l-57.117-91.75h248.511L361.53,121.67c-2.191,3.52-1.114,8.15,2.405,10.341c1.235,0.769,2.607,1.135,3.961,1.135
	c2.507,0,4.958-1.255,6.381-3.54l12.354-19.845c1.271,6.352,5.952,11.486,12.048,13.403v242.66
	C398.678,369.97,402.04,373.331,406.186,373.331z M133.099,15.015h37.149v61.56h-37.149V15.015z M185.263,15.015h37.149v61.56
	h-37.149V15.015z M237.425,15.015h37.149v61.56h-37.149V15.015z M289.59,15.015h37.149v61.56H289.59V15.015z M341.753,15.015h37.149
	v61.56h-37.149V15.015z M411.073,106.284c0,1.475-1.201,2.677-2.677,2.677h-4.422c-1.475,0-2.677-1.201-2.677-2.677V91.589h9.776
	L411.073,106.284L411.073,106.284z M420.911,76.574h-26.994v-61.56h26.994V76.574z M91.09,15.015h26.994v61.56H91.09V15.015z
	 M110.72,91.589v14.695c0,1.475-1.201,2.677-2.677,2.677h-2.211c-0.002,0-0.005,0-0.007,0h-2.204c-1.475,0-2.677-1.201-2.677-2.677
	V91.589H110.72z M100.945,405.716c0-1.475,1.201-2.677,2.677-2.677h4.422c1.475,0,2.677,1.201,2.677,2.677v14.695h-9.776
	C100.945,420.411,100.945,405.716,100.945,405.716z M420.911,496.985H91.09v-61.56h302.674c0.005,0,0.01,0.001,0.016,0.001
	c0.005,0,0.01-0.001,0.014-0.001h27.116V496.985z M339.948,419.45H229.836v-5.897c0-10.913,3.795-20.95,10.122-28.883
	c0.053-0.063,0.102-0.129,0.153-0.194c8.515-10.562,21.549-17.337,36.14-17.337h17.281c25.593,0,46.415,20.822,46.415,46.415v5.896
	H339.948z M214.821,413.553v6.857h-42.769v-4.924c0-18.123,14.743-32.867,32.866-32.867h10.345c2.514,0,5.015,0.301,7.45,0.866
	C217.698,392.38,214.821,402.635,214.821,413.553z M403.974,403.039h4.423c1.475,0,2.677,1.201,2.677,2.677v14.695h-9.776v-14.695
	C401.298,404.24,402.499,403.039,403.974,403.039z M380.255,420.41h-25.294v-6.857c0-33.873-27.557-61.43-61.43-61.43h-17.281
	c-17.229,0-32.813,7.139-43.98,18.602c-5.408-2.049-11.191-3.122-17.008-3.122H204.92c-26.402,0-47.881,21.479-47.881,47.882v4.924
	h-25.294l91.606-147.153c4.368-7.016,5.838-15.152,4.447-22.932l19.96,19.96c0.236,0.236,0.483,0.452,0.735,0.664v11.7
	c0,4.146,3.361,7.507,7.507,7.507c4.146,0,7.507-3.361,7.507-7.507v-11.789c0.216-0.186,0.432-0.37,0.637-0.576l20.08-20.083
	c-1.428,7.819,0.034,16.003,4.425,23.055L380.255,420.41z M208.962,178.037c4.442-4.442,10.274-6.661,16.109-6.661
	c5.833,0,11.667,2.221,16.108,6.661l6.575,6.575c4.516,4.515,11.867,4.516,16.386-0.001l6.681-6.682
	c8.883-8.882,23.335-8.882,32.217,0c4.302,4.302,6.672,10.024,6.672,16.109c0,6.085-2.37,11.805-6.673,16.109l-47.088,47.095
	l-46.989-46.989C200.08,201.372,200.08,186.919,208.962,178.037z"/>
<path d="M366.686,459.931H145.315c-4.146,0-7.507,3.361-7.507,7.507s3.361,7.507,7.507,7.507h221.371
	c4.146,0,7.507-3.361,7.507-7.507S370.832,459.931,366.686,459.931z"/>
<g>
</g>
<g>
</g>
<g>
</g>
<g>
</g>
<g>
</g>
<g>
</g>
<g>
</g>
<g>
</g>
<g>
</g>
<g>
</g>
<g>
</g>
<g>
</g>
<g>
</g>
<g>
</g>
<g>
</g>
</svg>
