<?xml version="1.0" encoding="iso-8859-1"?>
<!-- Generator: Adobe Illustrator 19.0.0, SVG Export Plug-In . SVG Version: 6.00 Build 0)  -->
<svg version="1.1" id="Capa_1" xmlns="http://www.w3.org/2000/svg" xmlns:xlink="http://www.w3.org/1999/xlink" x="0px" y="0px"
	 viewBox="0 0 512.002 512.002" style="enable-background:new 0 0 512.002 512.002;" xml:space="preserve">
<path style="fill:#FF4040;" d="M402.015,332.146L402.015,332.146C366.839,383,321.97,426.333,270.007,459.634l-29.043,18.613
	c-5.829,3.735-13.284,3.735-19.113,0l-29.043-18.613C140.846,426.333,95.977,383,60.8,332.146l0,0
	c-27.233-41.051-21.847-95.711,12.868-130.597l0,0c38.515-38.705,100.961-38.705,139.476,0l5.696,5.724
	c6.941,6.975,18.194,6.975,25.134,0l5.696-5.724c38.515-38.705,100.961-38.705,139.476,0l0,0
	C423.862,236.435,429.248,291.095,402.015,332.146z"/>
<path style="fill:#ED3C3C;" d="M226.91,480.457c-1.762-0.463-3.472-1.193-5.058-2.21l-29.043-18.613
	C140.846,426.333,95.977,383,60.8,332.146l0,0c-27.233-41.051-21.847-95.711,12.868-130.597l0,0
	c20.107-20.206,46.735-29.857,73.076-28.966c-12.813,5.584-24.817,13.639-35.292,24.165l0,0
	c-40.218,40.416-46.457,103.74-14.908,151.297l0,0C132.113,399.466,176.237,444.246,226.91,480.457z"/>
<path style="fill:#C23C3C;" d="M232.151,380.733h-1.486c-13.316,0-24.111-10.795-24.111-24.111v-71.664
	c0-13.316,10.795-24.111,24.111-24.111h1.486c13.316,0,24.111,10.795,24.111,24.111v71.664
	C256.262,369.938,245.467,380.733,232.151,380.733z"/>
<path style="fill:#FFC850;" d="M420.219,437.036v31.548c0,5.361-4.325,9.707-9.659,9.707h-53.127c-2.667,0-4.83-2.173-4.83-4.854
	V371.514c0-2.681,2.162-4.854,4.83-4.854h53.127c5.335,0,9.659,4.346,9.659,9.707v31.548h-4.83c-8.002,0-14.489,6.519-14.489,14.561
	s6.487,14.561,14.489,14.561h4.83V437.036z"/>
<g>
	<path style="fill:#FFDC64;" d="M340.216,104.57h18.978c2.761,0,5,2.239,5,5V499.5c0,2.761-2.239,5-5,5h-18.978
		c-2.761,0-5-2.239-5-5V109.57C335.216,106.809,337.455,104.57,340.216,104.57z"/>
	<path style="fill:#FFDC64;" d="M412.024,7.5H287.386c-31.141,0-56.477,25.46-56.477,56.755v7.828
		c0,31.295,25.335,56.755,56.477,56.755h124.638c31.141,0,56.477-25.46,56.477-56.755v-7.828C468.501,32.96,443.166,7.5,412.024,7.5
		z M412.024,93.611H287.386c-11.812,0-21.422-9.657-21.422-21.528v-7.828c0-11.87,9.61-21.528,21.422-21.528h124.638
		c11.812,0,21.422,9.657,21.422,21.528v7.828C433.447,83.953,423.837,93.611,412.024,93.611z"/>
</g>
<path style="fill:#FFC850;" d="M318.297,128.838h-30.91c-31.141,0-56.477-25.46-56.477-56.755v-7.828
	c0-31.295,25.335-56.755,56.477-56.755h30.91c-31.141,0-56.477,25.46-56.477,56.755v7.828
	C261.82,103.378,287.155,128.838,318.297,128.838z"/>
<path d="M440.94,64.255v7.828c0,16.006-12.977,29.028-28.928,29.028H287.35c-15.951,0-28.927-13.022-28.927-29.028v-7.828
	c0-16.006,12.977-29.028,28.927-29.028h20.539c4.143,0,7.501,3.358,7.501,7.5s-3.359,7.5-7.501,7.5H287.35
	c-7.678,0-13.925,6.293-13.925,14.028v7.828c0,7.735,6.246,14.028,13.925,14.028h124.662c7.678,0,13.925-6.293,13.925-14.028v-7.828
	c0-7.735-6.247-14.028-13.925-14.028h-74.899c-4.143,0-7.501-3.358-7.501-7.5s3.359-7.5,7.501-7.5h74.899
	C427.963,35.227,440.94,48.249,440.94,64.255z M476.001,64.255v7.828c0,35.43-28.705,64.255-63.989,64.255h-40.338v42.509
	c8.303,4.728,15.963,10.569,22.773,17.411c2.922,2.937,2.911,7.685-0.026,10.607c-1.464,1.456-3.378,2.184-5.292,2.184
	c-1.926,0-3.851-0.737-5.317-2.209c-3.762-3.78-7.826-7.203-12.139-10.248V359.16h0.476c8.282-10.025,16.236-20.522,23.64-31.22
	c20.454-30.878,21.312-71.296,2.179-102.99c-2.141-3.546-1.001-8.156,2.546-10.296c3.548-2.141,8.158-1.001,10.298,2.545
	c22.128,36.653,21.123,83.4-2.561,119.093c-0.027,0.041-0.054,0.081-0.082,0.121c-5.34,7.719-10.971,15.325-16.787,22.748h19.164
	c9.463,0,17.162,7.719,17.162,17.207v31.548c0,4.142-3.359,7.5-7.501,7.5h-4.831c-3.855,0-6.991,3.167-6.991,7.061
	s3.136,7.061,6.991,7.061h4.831c4.143,0,7.501,3.358,7.501,7.5v31.548c0,9.488-7.699,17.207-17.162,17.207h-38.873v13.855
	c0,6.812-5.532,12.354-12.332,12.354h-19.323c-6.8,0-12.332-5.542-12.332-12.354v-73.744
	c-16.921,14.579-34.915,28.028-53.672,40.047l-29.049,18.613c-4.132,2.648-8.87,3.972-13.606,3.972
	c-4.737,0-9.473-1.324-13.606-3.972l-29.048-18.613c-20.582-13.188-40.299-28.1-58.604-44.322c-3.1-2.748-3.385-7.488-0.637-10.587
	s7.489-3.385,10.589-0.637c17.725,15.708,36.817,30.148,56.747,42.918l29.049,18.613c3.347,2.146,7.674,2.145,11.021,0
	l29.049-18.613c21.825-13.984,42.607-29.944,61.768-47.435V180.402c-27.079-2.498-53.439,7.041-72.743,26.436l-5.697,5.724
	c-4.776,4.798-11.129,7.441-17.887,7.441c0,0,0,0-0.001,0c-6.759,0-13.111-2.643-17.886-7.441l-5.697-5.723
	c-17.213-17.295-40.096-26.819-64.434-26.819s-47.222,9.524-64.434,26.819c-32.085,32.236-37.118,83.155-11.976,121.103
	c15.373,22.213,32.809,43.185,51.823,62.335c2.919,2.939,2.901,7.688-0.039,10.606c-1.463,1.452-3.374,2.177-5.285,2.177
	c-1.929,0-3.857-0.739-5.324-2.216c-19.653-19.793-37.672-41.471-53.557-64.431c-0.028-0.04-0.055-0.08-0.082-0.121
	C25.365,292.43,31.171,233.537,68.274,196.258c20.049-20.144,46.712-31.239,75.069-31.239c0.002,0-0.001,0,0,0
	c28.359,0,55.019,11.094,75.069,31.239l5.697,5.723c1.939,1.949,4.515,3.022,7.252,3.022s5.313-1.073,7.252-3.021l5.697-5.724
	c22.162-22.267,52.317-33.371,83.378-30.905v-29.015H287.35c-35.284,0-63.989-28.825-63.989-64.255v-7.828
	C223.361,28.825,252.066,0,287.35,0h124.662C447.296,0,476.001,28.825,476.001,64.255z M356.671,136.338h-13.98V497h13.981
	L356.671,136.338L356.671,136.338z M371.674,374.16v96.631h38.873c1.191,0,2.16-0.99,2.16-2.207v-24.209
	c-10.873-1.326-19.323-10.641-19.323-21.899s8.45-20.573,19.323-21.899v-24.209c0-1.217-0.969-2.207-2.16-2.207h-38.873V374.16z
	 M460.998,64.255c0-27.159-21.975-49.255-48.986-49.255H287.35c-27.011,0-48.986,22.096-48.986,49.255v7.828
	c0,27.159,21.975,49.255,48.986,49.255h124.662c27.011,0,48.986-22.096,48.986-49.255L460.998,64.255L460.998,64.255z
	 M230.618,388.232c-17.434,0-31.617-14.181-31.617-31.611v-71.664c0-17.43,14.183-31.611,31.617-31.611h1.486
	c17.434,0,31.617,14.181,31.617,31.611v71.664c0,17.43-14.183,31.611-31.617,31.611H230.618z M230.618,373.232h1.486
	c9.161,0,16.614-7.452,16.614-16.611v-71.664c0-9.159-7.453-16.611-16.614-16.611h-1.486c-9.161,0-16.614,7.452-16.614,16.611
	v71.664C214.004,365.781,221.457,373.232,230.618,373.232z"/>
<g>
</g>
<g>
</g>
<g>
</g>
<g>
</g>
<g>
</g>
<g>
</g>
<g>
</g>
<g>
</g>
<g>
</g>
<g>
</g>
<g>
</g>
<g>
</g>
<g>
</g>
<g>
</g>
<g>
</g>
</svg>
