<?xml version="1.0" encoding="iso-8859-1"?>
<!-- Generator: Adobe Illustrator 19.0.0, SVG Export Plug-In . SVG Version: 6.00 Build 0)  -->
<svg version="1.1" id="Capa_1" xmlns="http://www.w3.org/2000/svg" xmlns:xlink="http://www.w3.org/1999/xlink" x="0px" y="0px"
	 viewBox="0 0 512 512" style="enable-background:new 0 0 512 512;" xml:space="preserve">
<path style="fill:#EC5569;" d="M306.362,77.25c11.515,11.505,11.515,30.163,0,41.668l-48.161,48.181
	c-1.551,1.551-4.062,1.551-5.612,0l-48.071-48.071c-5.762-5.752-8.634-13.296-8.634-20.839c0-7.533,2.871-15.076,8.634-20.839
	c11.505-11.505,30.163-11.505,41.668,0l6.393,6.403c1.551,1.551,4.062,1.551,5.612,0l6.503-6.503
	C276.199,65.745,294.857,65.745,306.362,77.25z"/>
<g>
	<path style="fill:#F7CF69;" d="M503.937,481.804c0,2.691-1.211,5.102-3.121,6.703L330.822,376.679l123.813-81.455l49.301-32.434
		V481.804z"/>
	<path style="fill:#F7CF69;" d="M10.114,488.477l170.403-111.798l64.268-42.168c6.673-4.372,15.307-4.372,21.969,0.02l64.068,42.148
		l169.993,111.828c-1.531,1.281-3.482,2.051-5.632,2.051H15.697c-2.141,0-4.092-0.77-5.622-2.041L10.114,488.477z"/>
	<path style="fill:#F7CF69;" d="M180.518,376.679L10.114,488.477l-0.04,0.04c-1.911-1.611-3.131-4.022-3.131-6.713V262.8
		l49.341,32.374L180.518,376.679z"/>
</g>
<path style="fill:#FFB64C;" d="M59.446,176.213v114.139l-3.161,4.822L6.943,262.8v-77.833c0-4.832,3.922-8.754,8.754-8.754
	L59.446,176.213L59.446,176.213z"/>
<path style="fill:#E63950;" d="M234.533,119.028c-5.762-5.752-8.634-13.296-8.634-20.839c0-7.533,2.871-15.076,8.634-20.839
	c1.929-1.929,4.063-3.528,6.327-4.809c-11.238-6.365-25.765-4.766-35.341,4.809c-5.762,5.762-8.634,13.306-8.634,20.839
	c0,7.543,2.871,15.086,8.634,20.839l48.071,48.071c1.551,1.551,4.062,1.551,5.612,0l11.698-11.703L234.533,119.028z"/>
<path style="fill:#FFB64C;" d="M36.958,281.837L7.943,262.8v219.004c0,2.691,1.221,5.102,3.131,6.713l0.04-0.04l25.843-16.955
	V281.837z"/>
<path style="fill:#FF9F00;" d="M35.971,176.213H16.697c-4.832,0-8.754,3.922-8.754,8.754V262.8l28.028,18.39V176.213z"/>
<path style="fill:#FFB64C;" d="M503.937,262.79l-49.301,32.434l-3.201-4.872V176.213h43.749c4.832,0,8.754,3.922,8.754,8.754V262.79
	z"/>
<path style="fill:#B5D3E3;" d="M59.446,22.867h391.988v153.346V297.33l-120.612,79.349l-64.068-42.148
	c-6.663-4.392-15.297-4.392-21.969-0.02l-64.268,42.168L59.446,297.248V176.213V22.867z M264.694,77.25l-6.503,6.503
	c-1.551,1.551-4.062,1.551-5.612,0l-6.393-6.403c-11.505-11.505-30.163-11.505-41.668,0c-5.762,5.762-8.634,13.306-8.634,20.839
	c0,7.543,2.871,15.086,8.634,20.839l48.071,48.071c1.551,1.551,4.062,1.551,5.612,0l48.161-48.181
	c11.515-11.505,11.515-30.163,0-41.668C294.857,65.745,276.199,65.745,264.694,77.25z"/>
<polygon style="fill:#8ABBD5;" points="89.46,186.076 89.46,22.867 59.446,22.867 59.446,176.213 59.446,297.248 89.566,317.009 "/>
<path d="M247.843,171.692c2.168,2.168,5.048,3.36,8.111,3.36c3.064,0,5.945-1.194,8.112-3.361l48.158-48.177
	c6.988-6.982,10.837-16.266,10.837-26.142s-3.849-19.16-10.837-26.142c-14.412-14.41-37.863-14.41-52.276,0.002l-4.002,4.002
	l-3.896-3.902c-14.413-14.413-37.865-14.414-52.278,0c-6.984,6.984-10.832,16.269-10.832,26.145c0,9.887,3.849,19.174,10.832,26.144
	L247.843,171.692z M210.383,81.943c4.282-4.282,9.906-6.422,15.53-6.422c5.622,0,11.244,2.14,15.523,6.418l6.397,6.407
	c2.167,2.168,5.048,3.361,8.111,3.361c3.064,0,5.946-1.194,8.111-3.36l6.503-6.503c8.563-8.563,22.495-8.562,31.056,0l0.002,0.002
	c4.15,4.147,6.437,9.66,6.437,15.526c0,5.866-2.286,11.379-6.44,15.53l-45.662,45.68l-45.576-45.576
	c-4.147-4.14-6.431-9.654-6.431-15.529C203.948,91.61,206.234,86.094,210.383,81.943z"/>
<path d="M495.743,167.997h-36.246V22.155c0-4.144-3.359-7.503-7.503-7.503H60.006c-4.144,0-7.503,3.359-7.503,7.503v145.843H16.257
	C7.293,167.997,0,175.29,0,184.254v296.838c0,4.805,2.114,9.343,5.843,12.485c2.929,2.432,6.628,3.772,10.414,3.772h479.486
	c3.81,0,7.519-1.35,10.451-3.803c3.691-3.091,5.806-7.63,5.806-12.454V184.254C512,175.29,504.708,167.997,495.743,167.997z
	 M496.994,475.931l-151.958-99.965l151.958-99.97V475.931z M15.006,475.948V275.984l152.391,99.982L15.006,475.948z
	 M249.458,340.075c4.178-2.737,9.566-2.734,13.734,0.012l216.244,142.255H32.617L249.458,340.075z M16.257,183.004h36.246v80.335
	c0,4.144,3.359,7.503,7.503,7.503s7.503-3.359,7.503-7.503V29.658h376.982v233.68c0,4.144,3.359,7.503,7.503,7.503
	s7.503-3.359,7.503-7.503v-80.335h36.246c0.689,0,1.251,0.561,1.251,1.251v73.779l-165.61,108.952l-59.939-39.431
	c-9.163-6.04-21.021-6.053-30.215-0.029l-60.154,39.466L15.006,258.036v-73.782C15.006,183.565,15.568,183.004,16.257,183.004z"/>
<path d="M122.443,229.734h99.443c4.144,0,7.503-3.359,7.503-7.503c0-4.144-3.359-7.503-7.503-7.503h-99.443
	c-4.144,0-7.503,3.359-7.503,7.503C114.939,226.374,118.299,229.734,122.443,229.734z"/>
<path d="M246.406,222.23c0,4.144,3.359,7.503,7.503,7.503h138.289c4.144,0,7.503-3.359,7.503-7.503c0-4.144-3.359-7.503-7.503-7.503
	H253.909C249.765,214.727,246.406,218.087,246.406,222.23z"/>
<path d="M392.199,248.742h-99.443c-4.144,0-7.503,3.359-7.503,7.503s3.359,7.503,7.503,7.503h99.443
	c4.144,0,7.503-3.359,7.503-7.503C399.702,252.101,396.342,248.742,392.199,248.742z"/>
<path d="M122.443,263.748h138.289c4.144,0,7.503-3.359,7.503-7.503c0-4.144-3.359-7.503-7.503-7.503H122.443
	c-4.144,0-7.503,3.359-7.503,7.503C114.939,260.389,118.299,263.748,122.443,263.748z"/>
<g>
</g>
<g>
</g>
<g>
</g>
<g>
</g>
<g>
</g>
<g>
</g>
<g>
</g>
<g>
</g>
<g>
</g>
<g>
</g>
<g>
</g>
<g>
</g>
<g>
</g>
<g>
</g>
<g>
</g>
</svg>
